<?xml version="1.0" encoding="UTF-8" standalone="no"?>
<svg
   id="svg363"
   version="1.1"
   viewBox="0 0 297 210"
   height="210mm"
   width="297mm"
   xmlns="http://www.w3.org/2000/svg"
   xmlns:svg="http://www.w3.org/2000/svg"
   xmlns:rdf="http://www.w3.org/1999/02/22-rdf-syntax-ns#"
   xmlns:cc="http://creativecommons.org/ns#"
   xmlns:dc="http://purl.org/dc/elements/1.1/">
  <defs
     id="defs357" />
  <metadata
     id="metadata360">
    <rdf:RDF>
      <cc:Work
         rdf:about="">
        <dc:format>image/svg+xml</dc:format>
        <dc:type
           rdf:resource="http://purl.org/dc/dcmitype/StillImage" />
        <dc:title />
      </cc:Work>
    </rdf:RDF>
    <rdf:RDF>
      <cc:Work
         rdf:about="">
        <dc:title />
      </cc:Work>
    </rdf:RDF>
    <rdf:RDF>
      <cc:Work
         rdf:about="">
        <dc:title />
      </cc:Work>
    </rdf:RDF>
    <rdf:RDF>
      <cc:Work
         rdf:about="">
        <dc:title />
      </cc:Work>
    </rdf:RDF>
    <rdf:RDF>
      <cc:Work
         rdf:about="">
        <dc:title />
      </cc:Work>
    </rdf:RDF>
    <rdf:RDF>
      <cc:Work
         rdf:about="">
        <dc:title />
      </cc:Work>
    </rdf:RDF>
    <rdf:RDF>
      <cc:Work
         rdf:about="">
        <dc:title />
      </cc:Work>
    </rdf:RDF>
    <rdf:RDF>
      <cc:Work
         rdf:about="">
        <dc:title />
      </cc:Work>
    </rdf:RDF>
    <rdf:RDF>
      <cc:Work
         rdf:about="">
        <dc:title />
      </cc:Work>
    </rdf:RDF>
    <rdf:RDF>
      <cc:Work
         rdf:about="">
        <dc:title />
      </cc:Work>
    </rdf:RDF>
    <rdf:RDF>
      <cc:Work
         rdf:about="">
        <dc:title />
      </cc:Work>
    </rdf:RDF>
    <rdf:RDF>
      <cc:Work
         rdf:about="">
        <dc:title />
      </cc:Work>
    </rdf:RDF>
    <rdf:RDF>
      <cc:Work
         rdf:about="">
        <dc:title />
      </cc:Work>
    </rdf:RDF>
    <rdf:RDF>
      <cc:Work
         rdf:about="">
        <dc:title />
      </cc:Work>
    </rdf:RDF>
    <rdf:RDF>
      <cc:Work
         rdf:about="">
        <dc:title />
      </cc:Work>
    </rdf:RDF>
    <rdf:RDF>
      <cc:Work
         rdf:about="">
        <dc:title />
      </cc:Work>
    </rdf:RDF>
    <rdf:RDF>
      <cc:Work
         rdf:about="">
        <dc:title />
      </cc:Work>
    </rdf:RDF>
    <rdf:RDF>
      <cc:Work
         rdf:about="">
        <dc:title />
      </cc:Work>
    </rdf:RDF>
    <rdf:RDF>
      <cc:Work
         rdf:about="">
        <dc:title />
      </cc:Work>
    </rdf:RDF>
    <rdf:RDF>
      <cc:Work
         rdf:about="">
        <dc:title />
      </cc:Work>
    </rdf:RDF>
    <rdf:RDF>
      <cc:Work
         rdf:about="">
        <dc:title />
      </cc:Work>
    </rdf:RDF>
    <rdf:RDF>
      <cc:Work
         rdf:about="">
        <dc:title />
      </cc:Work>
    </rdf:RDF>
    <rdf:RDF>
      <cc:Work
         rdf:about="">
        <dc:title />
      </cc:Work>
    </rdf:RDF>
    <rdf:RDF>
      <cc:Work
         rdf:about="">
        <dc:title />
      </cc:Work>
    </rdf:RDF>
    <rdf:RDF>
      <cc:Work
         rdf:about="">
        <dc:title />
      </cc:Work>
    </rdf:RDF>
    <rdf:RDF>
      <cc:Work
         rdf:about="">
        <dc:title />
      </cc:Work>
    </rdf:RDF>
    <rdf:RDF>
      <cc:Work
         rdf:about="">
        <dc:title />
      </cc:Work>
    </rdf:RDF>
    <rdf:RDF>
      <cc:Work
         rdf:about="">
        <dc:title />
      </cc:Work>
    </rdf:RDF>
    <rdf:RDF>
      <cc:Work
         rdf:about="">
        <dc:title />
      </cc:Work>
    </rdf:RDF>
    <rdf:RDF>
      <cc:Work
         rdf:about="">
        <dc:title />
      </cc:Work>
    </rdf:RDF>
  </metadata>
  <path
     style="display:inline;fill:#3201f1;stroke:none;stroke-width:0.0846667"
     d="m 4.3179982,107.72266 0.84667,1.10067 v 0.0847 c -0.98383,0.5605 -1.87595,1.33351 -2.794,1.99644 -0.24727,0.1778 -0.9734,0.71845 -0.9734,0.71845 0,0 1.18386,1.72334 1.51733,2.19578 1.16355,1.64847 2.2102,3.40361 3.19322,5.16467 3.10391,5.56091 5.3885598,11.4085 7.1247298,17.526 4.743623,16.71456 2.71713,35.11085 -4.4857198,50.80001 -1.99837,4.35279 -4.40809,8.76782 -7.39216,12.53066 v 0.0847 l 3.72533,2.62467 0.762,-1.016 v -0.0847 c -0.41344,-0.52095 -1.9103,-2.23596 -0.99666,-2.87104 0.77598,-0.5395 2.21202,0.0751 2.94399,0.43671 1.84785,0.9127 3.6387198,2.0695 4.9389498,3.70433 0.45127,0.56744 1.04673,1.26525 1.06079,2.03194 0.0113,0.62342 -0.56786,0.77503 -1.08907,0.75841 -0.81085,-0.0259 -1.01367,-0.12508 -2.07725,-0.51026 l -0.7620398,1.10151 c 0.6437198,0.47635 2.1020098,1.57289 2.7546198,2.03707 0.20024,0.1424 0.77343,0.52248 0.77343,0.52248 0,0 1.40242,-1.75164 1.73067,-2.21581 1.61299,-2.28097 3.035643,-4.74914 4.379813,-7.19667 5.74836,-10.46709 9.28158,-21.85391 10.70255,-33.69733 1.98238,-16.52177 -1.21743,-33.3751 -8.12995,-48.42934 -1.61544,-3.51791 -3.57878,-6.89441 -5.650993,-10.16001 -0.88756,-1.39869 -1.98476,-2.70425 -2.78952,-4.14867 l -3.6406598,2.62467 h -0.0847 l -0.84667,-1.016 c 0.70121,-0.762 2.4474598,-3.72279 0,-3.14113 -0.31199,0.0737 -0.62801,0.1651 -0.93133,0.26924 -2.08752,0.71543 -3.99694,2.02184 -5.49576,3.63389 -0.49346,0.53086 -1.96399996,2.10227 -1.22649,2.92015 0.59313,0.65702 2.28382,-0.10075 2.91225,-0.38015 m 0,-157.649343 0.84667,1.10067 v 0.0847 c -0.98382,0.56049 -1.87597,1.3335 -2.794,1.99644 -0.24727,0.1778 -0.95402,0.72839 -0.95402,0.72839 0,0 1.16448,1.71339 1.49795,2.18583 1.16356,1.64846 2.2102,3.4036 3.19322,5.16467 3.10391,5.56091 5.3885598,11.40883 7.1247298,17.526 4.743623,16.7148903 2.71713,35.11042 -4.4857198,50.800004 -1.99837,4.35272 -4.40809,8.76808 -7.39216,12.53067 v 0.0847 l 3.72533,2.62466 0.762,-1.016 v -0.0847 c -0.41344,-0.5207 -1.91029,-2.23605 -0.99666,-2.87105 0.77598,-0.53933 2.21202,0.0754 2.94399,0.43688 1.84785,0.91271 3.6387198,2.06925 4.9389498,3.70417 0.45127,0.56726 1.04673,1.26492 1.06079,2.032 0.0113,0.62314 -0.56786,0.7747 -1.08907,0.75861 -0.58755,-0.0268 -1.14962,-0.14138 -2.01709,-0.50313 l -0.7915898,1.10826 c 0.6437198,0.47667 2.0713998,1.55895 2.7240098,2.02292 0.20016,0.14224 0.75337,0.56168 0.75337,0.56168 0,0 1.42248,-1.79104 1.75073,-2.25501 1.61299,-2.28092 3.035643,-4.74895 4.379813,-7.19667 5.74836,-10.46734 9.28158,-21.85416 10.70255,-33.6973337 1.98238,-16.52186 -1.21743,-33.3747603 -8.12995,-48.4293403 -1.61544,-3.5179 -3.57878,-6.8944 -5.650993,-10.16 -0.88756,-1.39869 -1.98476,-2.70425 -2.78952,-4.14866 l -3.6406598,2.62466 h -0.0847 l -0.84667,-1.016 c 0.70113,-0.762 2.4474598,-3.72279 0,-3.14113 -0.31199,0.0737 -0.628,0.1651 -0.93133,0.26924 -2.08752,0.71543 -3.99691,2.02184 -5.49576,3.63389 -0.49346,0.53086 -1.96400996,2.10228 -1.22649,2.92016 0.59315,0.65701 2.28382,-0.10076 2.91225,-0.38016 M 98.805945,99.679391 c -6.0706,-4.60841 -12.56961,-8.49376 -19.64267,-11.36735 -16.15728,-6.56505 -34.755834,-7.78087 -51.562004,-3.03784 -6.5184,1.83981 -12.820143,4.34255 -18.7113328,7.70382 -1.39752,0.79756 -2.83152,1.59173 -4.14867,2.51714 -0.32035,0.22437 -1.2094,0.83589 -1.2094,0.83589 0,0 1.79117,2.73281 2.4977,3.771669 0.18888,0.27771 0.82066,1.12488 0.82066,1.12488 0,0 0.98763,-0.61434 1.27771,-0.81077 0.82101,-0.556259 1.67547,-1.097279 2.5399998,-1.583259 3.25687,-1.8305 6.52755,-3.53907 9.990673,-4.94962 13.91302,-5.66843 29.623344,-7.10268 44.280664,-3.81762 4.11353,0.92202 8.08423,2.25383 12.02267,3.74396 4.74624,1.79663 9.20919,4.36626 13.462,7.104379 1.16332,0.7493 2.27499,1.58327 3.38667,2.40538 0.31919,0.23622 1.32051,1.01965 1.32051,1.01965 0,0 0.85542,-0.98832 1.07132,-1.27365 0.85344,-1.12776 1.82457,-2.20726 2.6035,-3.386659 m 0.254,-7.62 c -4.8641,-3.69316 -9.97204,-6.92997 -15.494,-9.55802 -18.93655,-9.01531 -38.688204,-10.51995 -58.492114,-4.10474 -4.03732,1.30784 -13.567203,5.01175 -19.5037728,9.09769 -1.00573,0.69221 -1.78297,1.21015 -1.78297,1.21015 l 3.30818,4.85417 c 0,0 0.79484,-0.41637 1.03267,-0.58147 0.79443,-0.54948 1.61849,-1.05156 2.4553298,-1.53416 3.3346,-1.92532 6.70459,-3.62458 10.244673,-5.14096 13.86738,-5.9419 30.340054,-7.2246 44.958004,-3.66098 3.98721,0.97197 8.00007,2.03369 11.76867,3.69993 4.59799,2.03285 8.99498,4.24773 13.208,7.00786 1.12437,0.7366 2.23266,1.52654 3.302,2.34103 0.31665,0.24215 1.32051,1.02981 1.32051,1.02981 0,0 0.89945,-1.03404 1.13567,-1.35831 0.81195,-1.11506 1.80848,-2.13276 2.53915,-3.302 m 0.254,-7.62 c -14.32899,-10.87798 -31.28704,-16.92064 -49.276004,-17.26777 -7.03538,-0.13547 -14.08405,0.98129 -20.91267,2.62043 -6.81304,1.63576 -13.349313,4.45178 -19.4733328,7.81558 -1.47582,0.81111 -2.88902,1.7272 -4.318,2.61451 -0.36293,0.22606 -1.26277,0.89084 -1.26277,0.89084 0,0 1.74407,2.57626 2.43203,3.66507 0.19154,0.30311 0.84214,1.22607 0.84214,1.22607 0,0 1.05188,-0.66473 1.37527,-0.88486 0.92109,-0.62653 1.9127898,-1.20057 2.8786598,-1.75683 3.44729,-1.98544 7.027513,-3.75666 10.752673,-5.16128 13.64454,-5.14604 28.474254,-6.51172 42.756674,-3.429 4.60891,0.99483 8.97771,2.55693 13.37733,4.22148 4.44263,1.68148 8.65378,4.20116 12.61533,6.78857 1.09305,0.71374 2.1861,1.46981 3.21734,2.26991 0.32342,0.24977 1.36716,1.0234 1.36716,1.0234 0,0 0.80538,-0.9455 1.03483,-1.24946 0.8509,-1.12606 1.84658,-2.18778 2.59334,-3.38666 m 0.25604,-7.59625 c -0.34703,-0.38326 -0.7488,-0.60287 -1.17298,-0.93138 -0.96097,-0.74337 -1.96088,-1.43679 -2.96333,-2.12429 -3.87012,-2.65176 -7.98153,-5.06222 -12.29106,-6.92912 -12.62262,-5.47031 -26.14388,-8.13054 -39.881314,-7.04088 -5.77519,0.4589 -11.36082,1.67725 -16.93003,3.22242 -5.88814,1.63406 -11.775443,4.16898 -17.0180028,7.30673 -1.22105,0.73067 -2.45581,1.43256 -3.64066,2.22165 -0.33355,0.22268 -1.35526,0.8668 -1.35526,0.8668 0,0 1.09874,1.66135 1.39387,2.11432 0.42439,0.65108 0.86355,1.2937 1.28482,1.94733 0.15298,0.23707 0.52314,0.88656 0.52314,0.88656 0,0 1.13979,-0.67574 1.45543,-0.87894 1.1602698,-0.74676 2.3588898,-1.43087 3.5559998,-2.11328 16.300623,-9.29979 36.664103,-12.23162 54.718047,-7.84088 7.47446,2.02184 14.56486,5.04857 21.31262,8.82725 1.894,1.06087 3.64744,2.38506 5.41867,3.6305 0.44958,0.31581 1.97087,1.45981 1.97087,1.45981 0,0 0.7935,-0.94927 1.04326,-1.26169 0.83228,-1.04224 1.70834,-2.37143 2.57591,-3.36291 M 4.5558482,65.789161 c 0,0 1.84913,2.78708 2.53283,3.83356 0.19185,0.29379 0.76466,1.16003 0.76466,1.16003 0,0 1.12482,-0.71553 1.45993,-0.91704 1.2717798,-0.76369 2.5426298,-1.52908 3.8099998,-2.30039 3.84336,-2.34103 8.135373,-4.05299 12.361343,-5.55075 17.33939,-6.14426 37.052084,-5.35516 53.932664,1.90585 3.92744,1.68995 7.76817,3.70163 11.34534,6.04774 1.72296,1.12945 5.46258,3.88619 5.46258,3.88619 0,0 0.3972,-0.45973 0.70115,-0.84496 0.68919,-0.87207 1.38938,-1.73736 2.0574,-2.62467 0.19897,-0.26331 0.93115,-1.14415 0.93115,-1.14415 0,0 -0.78129,-0.5839 -1.02428,-0.7744 -0.93134,-0.72982 -1.89992,-1.42324 -2.87867,-2.08957 -3.95224,-2.69155 -8.11869,-5.23155 -12.53067,-7.10269 -4.36177,-1.84912 -8.71093,-3.51197 -13.29266,-4.7481 -10.70026,-2.88629 -22.114174,-3.24951 -33.020004,-1.53332 -3.91465,0.61638 -7.93945,1.42071 -11.684,2.74913 -5.58775,1.98205 -11.048663,4.10549 -16.1713428,7.14163 -1.19882,0.71036 -2.39786,1.41394 -3.556,2.18864 -0.30939,0.20743 -1.20142,0.71727 -1.20142,0.71727 M 13.746338,180.11273 c -0.22547,-1.26263 1.74354,-1.614 1.9712,-0.33866 0.22547,1.26263 -1.74354,1.614 -1.9712,0.33866 m 0,-157.649339 c -0.22547,-1.26238 1.74354,-1.61375 1.9712,-0.33867 0.22547,1.26238 -1.74354,1.61375 -1.9712,0.33867 m 0.0847,109.220009 c -0.22547,-1.26264 1.74354,-1.614 1.97121,-0.33867 0.22547,1.26264 -1.74354,1.614 -1.97121,0.33867 m 0,-157.649353 c -0.22547,-1.26238 1.74354,-1.61375 1.97121,-0.33867 0.22547,1.26238 -1.74354,1.61375 -1.97121,0.33867 m 8.690273,133.688673 0.84667,1.10067 v 0.0847 c -0.98383,0.5605 -1.87596,1.33351 -2.794,1.99644 -0.24731,0.1778 -0.9734,0.71845 -0.9734,0.71845 0,0 1.18388,1.72334 1.5173,2.19578 1.16357,1.64847 2.21022,3.40361 3.19329,5.16468 3.10396,5.5609 5.38844,11.40849 7.1247,17.526 4.74379,16.71421 2.71712,35.1111 -4.48573,50.8 -1.99839,4.3528 -4.40808,8.76783 -7.39216,12.53067 v 0.0847 l 3.72533,2.62466 0.762,-1.016 v -0.0847 c -0.41342,-0.52096 -1.91033,-2.23597 -0.99669,-2.87105 0.77605,-0.5395 2.21208,0.0751 2.94403,0.43671 1.84785,0.91271 3.63872,2.06951 4.93894,3.70434 0.45128,0.56744 1.04674,1.26523 1.06079,2.03193 0.0114,0.62342 -0.56786,0.77503 -1.08907,0.75841 -0.81093,-0.0259 -1.07562,-0.16035 -2.07724,-0.51026 l -0.76205,1.10151 c 0.64372,0.47635 2.10202,1.5729 2.75463,2.03707 0.20023,0.1424 0.77343,0.52249 0.77343,0.52249 0,0 1.40242,-1.75165 1.73067,-2.21582 1.61298,-2.28096 3.03564,-4.74914 4.3798,-7.19667 5.74836,-10.46708 9.28159,-21.8539 10.70255,-33.69733 1.982384,-16.52177 -1.21742,-33.3751 -8.12995,-48.42934 -1.61544,-3.51791 -3.57877,-6.8944 -5.65099,-10.16 -0.88756,-1.39869 -1.98476,-2.70425 -2.78951,-4.14867 l -3.64067,2.62467 h -0.0847 l -0.84666,-1.016 c 0.70112,-0.762 2.44746,-3.72279 0,-3.14113 -0.312,0.0737 -0.62798,0.1651 -0.93134,0.26924 -2.08754,0.71543 -3.99694,2.02184 -5.49579,3.63389 -0.49344,0.53086 -1.96402,2.10227 -1.22649,2.92015 0.59318,0.65702 2.28389,-0.10075 2.91228,-0.38015 m 0,-157.649343 0.84667,1.10067 v 0.0847 c -0.98383,0.56049 -1.87596,1.3335 -2.794,1.99644 -0.24723,0.1778 -0.95402,0.72839 -0.95402,0.72839 0,0 1.1645,1.71339 1.49792,2.18583 1.16357,1.64846 2.21022,3.4036 3.19329,5.16467 3.10396,5.56091 5.38844,11.40883 7.1247,17.526 4.74379,16.7140503 2.71712,35.11127 -4.48573,50.800004 -1.99839,4.35272 -4.40808,8.76808 -7.39216,12.53067 v 0.0847 l 3.72533,2.62466 0.762,-1.016 v -0.0847 c -0.41342,-0.5207 -1.91033,-2.23605 -0.99669,-2.87105 0.77605,-0.53933 2.21208,0.0754 2.94403,0.43688 1.84785,0.91271 3.63872,2.06925 4.93894,3.70417 0.45128,0.56726 1.04674,1.26492 1.06079,2.032 0.0114,0.62314 -0.56786,0.7747 -1.08907,0.75861 -0.81093,-0.0263 -1.01586,-0.19101 -2.02998,-0.55861 -0.20893,0.31609 -0.76617,1.13613 -0.76617,1.13613 0,0 2.05888,1.58656 2.71149,2.05053 0.20015,0.14224 0.75337,0.56168 0.75337,0.56168 0,0 1.42248,-1.79104 1.75073,-2.25501 1.61298,-2.28092 3.03564,-4.74895 4.3798,-7.19667 5.74836,-10.46734 9.28159,-21.85416 10.70255,-33.6973337 1.982384,-16.52186 -1.21742,-33.3747603 -8.12995,-48.4293403 -1.61544,-3.5179 -3.57877,-6.8944 -5.65099,-10.16 -0.88756,-1.39869 -1.98476,-2.70425 -2.78951,-4.14866 l -3.64067,2.62466 h -0.0847 l -0.84666,-1.016 c 0.70112,-0.762 2.44746,-3.72279 0,-3.14113 -0.312,0.0737 -0.62798,0.1651 -0.93134,0.26924 -2.08754,0.71543 -3.99694,2.02184 -5.49579,3.63389 -0.49344,0.53086 -1.96393,2.10228 -1.22649,2.92016 0.59318,0.65701 2.28389,-0.10076 2.91228,-0.38016 m 3.6753,138.514674 c -0.088,-1.32588 2.09084,-1.46388 2.14181,-0.0847 0.0491,1.32926 -2.05206,1.43679 -2.14181,0.0847 m 0.28871,-7.62 c -0.0573,-1.3462 2.03674,-1.45118 2.11354,-0.0847 0.0743,1.32164 -2.05571,1.44187 -2.11354,0.0847 m 0.29879,-7.45066 c -0.25595,-1.32758 1.77063,-1.75938 2.04597,-0.42334 0.27347,1.32673 -1.78951,1.75345 -2.04597,0.42334 m 0.254,-7.62 c -0.25535,-1.32419 1.80095,-1.75514 2.05774,-0.42334 0.25679,1.33181 -1.80001,1.76022 -2.05774,0.42334 m 0.254,-7.62 c -0.25129,-1.30302 1.80061,-1.75684 2.05774,-0.42334 0.25679,1.33181 -1.80001,1.76022 -2.05774,0.42334 m 4.6576,121.835329 c -0.22547,-1.26263 1.74345,-1.614 1.97121,-0.33866 0.22547,1.26263 -1.74346,1.614 -1.97121,0.33866 m 0,-157.649329 c -0.22547,-1.26238 1.74345,-1.61375 1.97121,-0.33867 0.22547,1.26238 -1.74346,1.61375 -1.97121,0.33867 m 0.0847,109.219999 c -0.22547,-1.26263 1.74345,-1.614 1.9712,-0.33867 0.22547,1.26264 -1.74345,1.614 -1.9712,0.33867 m 0,-157.649343 c -0.22547,-1.26238 1.74345,-1.61375 1.9712,-0.33867 0.22547,1.26238 -1.74345,1.61375 -1.9712,0.33867 m 8.69027,133.688673 0.84666,1.10067 v 0.0847 c -0.98382,0.5605 -1.87596,1.33351 -2.794,1.99644 -0.24731,0.1778 -0.9734,0.71844 -0.9734,0.71844 0,0 1.18388,1.72334 1.5173,2.19578 1.16358,1.64847 2.21023,3.40361 3.19329,5.16468 3.10396,5.56091 5.38844,11.40849 7.1247,17.526 4.743794,16.71422 2.717124,35.1111 -4.48572,50.8 -1.99839,4.3528 -4.40809,8.76783 -7.39217,12.53067 v 0.0847 l 3.72534,2.62467 0.762,-1.016 v -0.0847 c -0.41343,-0.52095 -1.91034,-2.23596 -0.9967,-2.87105 0.77606,-0.53949 2.21209,0.0751 2.94403,0.43671 1.84785,0.91271 3.63872,2.06951 4.93895,3.70434 0.45127,0.56744 1.046734,1.26523 1.060784,2.03193 0.0114,0.62343 -0.567864,0.77503 -1.089064,0.75841 -0.81094,-0.0259 -0.80008,-0.0798 -2.07725,-0.51026 l -0.76204,1.10151 c 0.64372,0.47636 2.10201,1.5729 2.75462,2.03708 0.20024,0.1424 0.77343,0.52248 0.77343,0.52248 0,0 1.402424,-1.75165 1.730674,-2.21582 1.61299,-2.28096 3.03564,-4.74914 4.37981,-7.19666 5.74836,-10.46709 9.28158,-21.854 10.70254,-33.69734 1.9823,-16.52185 -1.21742,-33.37501 -8.12995,-48.42933 -1.61544,-3.51791 -3.57877,-6.89441 -5.65099,-10.16001 -0.88756,-1.39869 -1.98475,-2.70425 -2.789514,-4.14867 l -3.64067,2.62467 h -0.0847 l -0.84667,-1.016 c 0.70112,-0.762 2.44746,-3.72279 0,-3.14113 -0.312,0.0737 -0.62797,0.1651 -0.93133,0.26924 -2.08754,0.71543 -3.99695,2.02184 -5.4958,3.63389 -0.49344,0.53086 -1.96401,2.10227 -1.22648,2.92015 0.59317,0.65702 2.28388,-0.10075 2.91228,-0.38015 m 0,-157.649343 0.84666,1.10067 v 0.0847 c -0.98382,0.56049 -1.87596,1.3335 -2.794,1.99644 -0.24722,0.1778 -0.95402,0.72839 -0.95402,0.72839 0,0 1.1645,1.71339 1.49792,2.18583 1.16358,1.64846 2.21023,3.4036 3.19329,5.16467 3.10396,5.56091 5.38844,11.40883 7.1247,17.526 4.743794,16.7140503 2.717124,35.11127 -4.48572,50.800004 -1.99839,4.35272 -4.40809,8.76808 -7.39217,12.53067 v 0.0847 l 3.72534,2.62466 0.762,-1.016 v -0.0847 c -0.41343,-0.5207 -1.91034,-2.23605 -0.9967,-2.87105 0.77606,-0.53933 2.21209,0.0754 2.94403,0.43688 1.84785,0.91271 3.63872,2.06925 4.93895,3.70417 0.45127,0.56726 1.046734,1.26492 1.060784,2.032 0.0114,0.62314 -0.567864,0.7747 -1.089064,0.75861 -0.81094,-0.0263 -1.00567,-0.18006 -2.02858,-0.51814 l -0.80604,1.09206 c 0.64372,0.47667 2.09734,1.59016 2.74995,2.05413 0.20015,0.14224 0.75337,0.56168 0.75337,0.56168 0,0 1.422484,-1.79104 1.750734,-2.25501 1.61299,-2.28092 3.03564,-4.74895 4.37981,-7.19667 5.74836,-10.46734 9.28158,-21.85416 10.70254,-33.6973337 1.9823,-16.52186 -1.21742,-33.3747603 -8.12995,-48.4293403 -1.61544,-3.5179 -3.57877,-6.8944 -5.65099,-10.16 -0.88756,-1.39869 -1.98475,-2.70425 -2.789514,-4.14866 l -3.64067,2.62466 h -0.0847 l -0.84667,-1.016 c 0.70112,-0.762 2.44746,-3.72279 0,-3.14113 -0.312,0.0737 -0.62797,0.1651 -0.93133,0.26924 -2.08754,0.71543 -3.99695,2.02184 -5.4958,3.63389 -0.49344,0.53086 -1.96393,2.10228 -1.22648,2.92016 0.59317,0.65701 2.28388,-0.10076 2.91228,-0.38016 m 9.428394,230.039353 c -0.225474,-1.26264 1.74346,-1.614 1.97121,-0.33867 0.22547,1.26264 -1.74345,1.614 -1.97121,0.33867 m 0,-157.649339 c -0.225474,-1.26238 1.74346,-1.61375 1.97121,-0.33867 0.22547,1.26238 -1.74345,1.61375 -1.97121,0.33867 m 0.0847,109.219999 c -0.225474,-1.26263 1.74345,-1.614 1.97121,-0.33866 0.22547,1.26263 -1.74346,1.614 -1.97121,0.33866 m 0,-157.649343 c -0.225474,-1.26238 1.74345,-1.61375 1.97121,-0.33867 0.22547,1.26238 -1.74346,1.61375 -1.97121,0.33867 m 8.69027,133.688673 0.84667,1.10067 v 0.0847 c -0.98383,0.5605 -1.87596,1.33351 -2.794,1.99644 -0.24731,0.1778 -0.95441,0.75241 -0.95441,0.75241 0,0 1.16489,1.68938 1.49831,2.16182 1.16357,1.64847 2.21022,3.40361 3.19328,5.16467 3.10397,5.56091 5.38844,11.4085 7.1247,17.526 4.74388,16.71422 2.71713,35.1111 -4.48572,50.8 -1.99839,4.3528 -4.40809,8.76783 -7.39216,12.53067 v 0.0847 l 3.72533,2.62467 0.762,-1.016 v -0.0847 c -0.41343,-0.52095 -1.91033,-2.23596 -0.9967,-2.87105 0.77606,-0.53949 2.21209,0.0751 2.94403,0.43672 1.84785,0.9127 3.63872,2.0695 4.93895,3.70433 0.45127,0.56744 1.04673,1.26524 1.06079,2.03193 0.0113,0.62343 -0.56786,0.77503 -1.08907,0.75841 -0.81094,-0.0259 -1.02909,-0.15957 -2.07725,-0.51025 l -0.76204,1.10151 c 0.64372,0.47635 2.10201,1.57289 2.75462,2.03707 0.20024,0.1424 0.77343,0.52248 0.77343,0.52248 0,0 1.40242,-1.75165 1.73067,-2.21581 1.61299,-2.28096 3.03564,-4.74915 4.37981,-7.19667 5.74836,-10.46709 9.28158,-21.85391 10.70221,-33.69734 1.98289,-16.52185 -1.21717,-33.375 -8.12961,-48.42933 -1.61544,-3.51791 -3.57878,-6.89441 -5.65099,-10.16001 -0.88756,-1.39869 -1.98476,-2.70425 -2.78952,-4.14867 l -3.64066,2.62467 h -0.0847 l -0.84667,-1.016 c 0.70121,-0.762 2.44746,-3.72279 0,-3.14113 -0.31199,0.0737 -0.62797,0.1651 -0.93133,0.26924 -2.08754,0.71543 -3.99694,2.02184 -5.4958,3.63389 -0.49344,0.53086 -1.96401,2.10227 -1.22648,2.92015 0.59318,0.65702 2.28388,-0.10075 2.91228,-0.38015 m 0,-157.649343 0.84667,1.10067 v 0.0847 c -0.98383,0.56049 -1.87596,1.3335 -2.794,1.99644 -0.24731,0.1778 -0.95403,0.72839 -0.95403,0.72839 0,0 1.16451,1.71339 1.49793,2.18583 1.16357,1.64846 2.21022,3.4036 3.19328,5.16467 3.10397,5.56091 5.38844,11.40883 7.1247,17.526 4.74388,16.7140503 2.71713,35.11127 -4.48572,50.800004 -1.99839,4.35272 -4.40809,8.76808 -7.39216,12.53067 v 0.0847 l 3.72533,2.62466 0.762,-1.016 v -0.0847 c -0.41343,-0.5207 -1.91033,-2.23605 -0.9967,-2.87105 0.77597,-0.53933 2.21209,0.0754 2.94403,0.43688 1.84785,0.91271 3.63872,2.06925 4.93895,3.70417 0.45127,0.56726 1.04673,1.26492 1.06079,2.032 0.0113,0.62314 -0.56786,0.7747 -1.08907,0.75861 -0.81094,-0.0263 -1.11136,-0.20646 -2.04402,-0.55429 l -0.80331,1.16573 c 0.64372,0.47667 2.11005,1.55264 2.76266,2.01661 0.20016,0.14224 0.75337,0.56168 0.75337,0.56168 0,0 1.42248,-1.79104 1.75073,-2.25501 1.61299,-2.28092 3.03564,-4.74895 4.37981,-7.19667 5.74836,-10.46734 9.28158,-21.85416 10.70221,-33.6973337 1.98289,-16.52186 -1.21717,-33.3747603 -8.12961,-48.4293403 -1.61544,-3.5179 -3.57878,-6.8944 -5.65099,-10.16 -0.88756,-1.39869 -1.98476,-2.70425 -2.78952,-4.14866 l -3.64066,2.62466 h -0.0847 l -0.84667,-1.016 c 0.70113,-0.762 2.44746,-3.72279 0,-3.14113 -0.31199,0.0737 -0.62797,0.1651 -0.93133,0.26924 -2.08754,0.71543 -3.99694,2.02184 -5.4958,3.63389 -0.49344,0.53086 -1.96393,2.10228 -1.22648,2.92016 0.59318,0.65701 2.28388,-0.10076 2.91228,-0.38016 m 9.4284,230.039353 c -0.22547,-1.26263 1.74345,-1.614 1.9712,-0.33867 0.22547,1.26264 -1.74345,1.614 -1.9712,0.33867 m 0,-157.649339 c -0.22547,-1.26238 1.74345,-1.61375 1.9712,-0.33867 0.22547,1.26238 -1.74345,1.61375 -1.9712,0.33867 m 0.0847,109.220009 c -0.22547,-1.26264 1.74346,-1.61401 1.97121,-0.33867 0.22547,1.26263 -1.74345,1.614 -1.97121,0.33867 m 0,-157.649353 c -0.22547,-1.26238 1.74346,-1.61375 1.97121,-0.33867 0.22547,1.26238 -1.74345,1.61375 -1.97121,0.33867 m 8.69027,133.688673 0.84667,1.10067 v 0.0847 c -0.98383,0.5605 -1.87596,1.33351 -2.794,1.99644 -0.24723,0.1778 -0.91417,0.74851 -0.91417,0.74851 0,0 0.80529,1.19882 1.05531,1.57305 0.89577,1.34029 1.78892,2.68056 2.61899,4.06401 2.61857,4.36457 4.85631,9.05332 6.46854,13.88534 5.57868,16.72022 5.56683,34.87606 -0.83067,51.39266 -1.54178,3.98044 -3.39327,7.85114 -5.58707,11.51467 -0.70163,1.1717 -1.41655,2.35704 -2.20641,3.47133 -0.50902,0.71823 -1.25882,1.5351 -1.53585,2.37067 l 3.72533,2.54 0.67733,-0.93133 v -0.0847 c -0.41342,-0.52095 -1.91033,-2.23596 -0.99669,-2.87105 0.63864,-0.44399 1.70358,-0.0532 2.35136,0.17704 2.04622,0.72746 4.0894,2.20963 5.46439,3.87934 0.47244,0.57416 1.3318,1.54297 1.10236,2.36695 -0.17611,0.63319 -1.08035,0.53777 -1.57142,0.44358 -1.12005,-0.2147 -0.93064,-0.28346 -1.54038,-0.48001 l -0.74264,1.06524 3.55306,2.61558 c 3.56108,-4.48694 6.44398,-9.70179 8.83158,-14.90134 9.312495,-20.28503 11.010065,-43.50165 4.37388,-64.85466 -1.98797,-6.39742 -4.71508,-12.57978 -8.07635,-18.37268 -1.53077,-2.63652 -3.48319,-5.0546 -4.95977,-7.70467 l -3.64067,2.62467 h -0.0847 l -0.84666,-1.016 c 0.54288,-0.59013 1.12843,-1.30895 1.29971,-2.11667 0.17721,-0.83566 -0.47921,-1.19888 -1.21505,-1.04394 -0.31267,0.0652 -0.62746,0.16172 -0.93133,0.26078 -2.11929,0.6858 -4.07111,2.03877 -5.58046,3.66183 -0.49344,0.53086 -1.96393,2.10227 -1.22649,2.92015 0.59318,0.65702 2.28389,-0.10075 2.91228,-0.38015 m 0,-157.649343 0.84667,1.10067 v 0.0847 c -0.98383,0.56049 -1.87596,1.3335 -2.794,1.99644 -0.24731,0.1778 -0.95402,0.72839 -0.95402,0.72839 0,0 1.1645,1.71339 1.49792,2.18583 1.16357,1.64846 2.21022,3.4036 3.19329,5.16467 3.10396,5.56091 5.38844,11.40883 7.1247,17.526 4.74387,16.7140503 2.71695,35.11127 -4.48573,50.800004 -1.99839,4.35272 -4.40808,8.76808 -7.39216,12.53067 v 0.0847 l 3.72533,2.62466 0.762,-1.016 v -0.0847 c -0.41342,-0.5207 -1.91033,-2.23605 -0.99669,-2.87105 0.77605,-0.53933 2.212,0.0754 2.94403,0.43688 1.84785,0.91271 3.63872,2.06925 4.9386,3.70417 0.45128,0.56726 1.04733,1.26492 1.06088,2.032 0.0118,0.62314 -0.56727,0.7747 -1.08882,0.75861 -0.8111,-0.0263 -1.21106,-0.23981 -2.0155,-0.55146 l -0.79737,1.14578 c 0.64372,0.47667 2.07543,1.56976 2.72821,2.03373 0.19981,0.14224 0.75337,0.56168 0.75337,0.56168 0,0 1.42256,-1.79104 1.75107,-2.25501 1.6129,-2.28092 3.0353,-4.74895 4.3798,-7.19667 5.74802,-10.46734 9.281165,-21.85416 10.701875,-33.6973337 1.98289,-16.52186 -1.21751,-33.3747603 -8.129695,-48.4293403 -1.61544,-3.5179 -3.57886,-6.8944 -5.65066,-10.16 -0.88815,-1.39869 -1.98458,-2.70425 -2.78976,-4.14866 l -3.64067,2.62466 h -0.0847 l -0.84666,-1.016 c 0.70112,-0.762 2.44746,-3.72279 0,-3.14113 -0.312,0.0737 -0.62798,0.1651 -0.93134,0.26924 -2.08754,0.71543 -3.99694,2.02184 -5.49579,3.63389 -0.49344,0.53086 -1.96402,2.10228 -1.22649,2.92016 0.59318,0.65701 2.28389,-0.10076 2.91228,-0.38016 m -2.50994,140.377384 c -0.21522,-1.29201 1.80797,-1.63068 2.05715,-0.33867 0.26534,1.37668 -1.82398,1.73821 -2.05715,0.33867 m 0.25434,-7.62 c -0.21514,-1.21581 1.7592,-1.64169 2.05926,-0.42333 0.34493,1.40038 -1.8023,1.87621 -2.05926,0.42333 m 0.25408,-7.62 c -0.22606,-1.30133 1.93912,-1.60443 2.13809,-0.254 0.19346,1.31318 -1.90635,1.58835 -2.13809,0.254 m 0.26145,-7.62 c -0.15036,-1.36652 2.02938,-1.59258 2.14376,-0.16933 0.10364,1.29116 -2.00143,1.46304 -2.14376,0.16933 m 0.35179,-7.366 c -0.47802,-1.29371 1.51681,-2.02015 1.99111,-0.67733 0.4423,1.25137 -1.54051,1.89653 -1.99111,0.67733 m 10.8169,119.887699 c -0.22521,-1.26263 1.74329,-1.614 1.97104,-0.33867 0.22522,1.26264 -1.74328,1.614 -1.97104,0.33867 m 0,-157.649339 c -0.22521,-1.26238 1.74329,-1.61375 1.97104,-0.33867 0.22522,1.26238 -1.74328,1.61375 -1.97104,0.33867 m 0.0847,109.219999 c -0.22521,-1.26263 1.74329,-1.614 1.97104,-0.33866 0.22521,1.26263 -1.74329,1.614 -1.97104,0.33866 m 0,-157.649343 c -0.22521,-1.26238 1.74329,-1.61375 1.97104,-0.33867 0.22521,1.26238 -1.74329,1.61375 -1.97104,0.33867 z"
     id="path7530" />
</svg>
