<?xml version="1.0" encoding="UTF-8" standalone="no"?>
<svg
   id="svg363"
   version="1.1"
   viewBox="0 0 297 210"
   height="210mm"
   width="297mm"
   sodipodi:docname="carrete-15-1.1.svg"
   inkscape:version="1.2.2 (b0a8486, 2022-12-01)"
   inkscape:export-filename="carrete-15-cut.svg"
   inkscape:export-xdpi="300.12"
   inkscape:export-ydpi="300.12"
   xmlns:inkscape="http://www.inkscape.org/namespaces/inkscape"
   xmlns:sodipodi="http://sodipodi.sourceforge.net/DTD/sodipodi-0.dtd"
   xmlns="http://www.w3.org/2000/svg"
   xmlns:svg="http://www.w3.org/2000/svg"
   xmlns:rdf="http://www.w3.org/1999/02/22-rdf-syntax-ns#"
   xmlns:cc="http://creativecommons.org/ns#"
   xmlns:dc="http://purl.org/dc/elements/1.1/">
  <sodipodi:namedview
     id="namedview862"
     pagecolor="#ffffff"
     bordercolor="#666666"
     borderopacity="1.0"
     inkscape:showpageshadow="2"
     inkscape:pageopacity="0.0"
     inkscape:pagecheckerboard="0"
     inkscape:deskcolor="#d1d1d1"
     inkscape:document-units="mm"
     showgrid="false"
     inkscape:zoom="2.1043021"
     inkscape:cx="520.60016"
     inkscape:cy="594.734"
     inkscape:window-width="3440"
     inkscape:window-height="1384"
     inkscape:window-x="0"
     inkscape:window-y="0"
     inkscape:window-maximized="1"
     inkscape:current-layer="svg363" />
  <defs
     id="defs357" />
  <metadata
     id="metadata360">
    <rdf:RDF>
      <cc:Work
         rdf:about="">
        <dc:format>image/svg+xml</dc:format>
        <dc:type
           rdf:resource="http://purl.org/dc/dcmitype/StillImage" />
        <dc:title />
      </cc:Work>
    </rdf:RDF>
    <rdf:RDF>
      <cc:Work
         rdf:about="">
        <dc:title />
      </cc:Work>
    </rdf:RDF>
    <rdf:RDF>
      <cc:Work
         rdf:about="">
        <dc:title />
      </cc:Work>
    </rdf:RDF>
    <rdf:RDF>
      <cc:Work
         rdf:about="">
        <dc:title />
      </cc:Work>
    </rdf:RDF>
    <rdf:RDF>
      <cc:Work
         rdf:about="">
        <dc:title />
      </cc:Work>
    </rdf:RDF>
    <rdf:RDF>
      <cc:Work
         rdf:about="">
        <dc:title />
      </cc:Work>
    </rdf:RDF>
    <rdf:RDF>
      <cc:Work
         rdf:about="">
        <dc:title />
      </cc:Work>
    </rdf:RDF>
    <rdf:RDF>
      <cc:Work
         rdf:about="">
        <dc:title />
      </cc:Work>
    </rdf:RDF>
    <rdf:RDF>
      <cc:Work
         rdf:about="">
        <dc:title />
      </cc:Work>
    </rdf:RDF>
    <rdf:RDF>
      <cc:Work
         rdf:about="">
        <dc:title />
      </cc:Work>
    </rdf:RDF>
    <rdf:RDF>
      <cc:Work
         rdf:about="">
        <dc:title />
      </cc:Work>
    </rdf:RDF>
    <rdf:RDF>
      <cc:Work
         rdf:about="">
        <dc:title />
      </cc:Work>
    </rdf:RDF>
    <rdf:RDF>
      <cc:Work
         rdf:about="">
        <dc:title />
      </cc:Work>
    </rdf:RDF>
    <rdf:RDF>
      <cc:Work
         rdf:about="">
        <dc:title />
      </cc:Work>
    </rdf:RDF>
    <rdf:RDF>
      <cc:Work
         rdf:about="">
        <dc:title />
      </cc:Work>
    </rdf:RDF>
    <rdf:RDF>
      <cc:Work
         rdf:about="">
        <dc:title />
      </cc:Work>
    </rdf:RDF>
    <rdf:RDF>
      <cc:Work
         rdf:about="">
        <dc:title />
      </cc:Work>
    </rdf:RDF>
    <rdf:RDF>
      <cc:Work
         rdf:about="">
        <dc:title />
      </cc:Work>
    </rdf:RDF>
    <rdf:RDF>
      <cc:Work
         rdf:about="">
        <dc:title />
      </cc:Work>
    </rdf:RDF>
    <rdf:RDF>
      <cc:Work
         rdf:about="">
        <dc:title />
      </cc:Work>
    </rdf:RDF>
    <rdf:RDF>
      <cc:Work
         rdf:about="">
        <dc:title />
      </cc:Work>
    </rdf:RDF>
    <rdf:RDF>
      <cc:Work
         rdf:about="">
        <dc:title />
      </cc:Work>
    </rdf:RDF>
    <rdf:RDF>
      <cc:Work
         rdf:about="">
        <dc:title />
      </cc:Work>
    </rdf:RDF>
    <rdf:RDF>
      <cc:Work
         rdf:about="">
        <dc:title />
      </cc:Work>
    </rdf:RDF>
    <rdf:RDF>
      <cc:Work
         rdf:about="">
        <dc:title />
      </cc:Work>
    </rdf:RDF>
    <rdf:RDF>
      <cc:Work
         rdf:about="">
        <dc:title />
      </cc:Work>
    </rdf:RDF>
    <rdf:RDF>
      <cc:Work
         rdf:about="">
        <dc:title />
      </cc:Work>
    </rdf:RDF>
    <rdf:RDF>
      <cc:Work
         rdf:about="">
        <dc:title />
      </cc:Work>
    </rdf:RDF>
    <rdf:RDF>
      <cc:Work
         rdf:about="">
        <dc:title />
      </cc:Work>
    </rdf:RDF>
    <rdf:RDF>
      <cc:Work
         rdf:about="">
        <dc:title />
      </cc:Work>
    </rdf:RDF>
  </metadata>
  <path
     style="display:inline;fill:#3201f1;stroke:none;stroke-width:0.0846667"
     d="m 102.93978,109.88942 -1.10067,0.84667 h -0.0847 c -0.5605,-0.98383 -1.33351,-1.87595 -1.996445,-2.794 -0.1778,-0.24727 -0.718447,-0.9734 -0.718447,-0.9734 0,0 -1.72334,1.18386 -2.19578,1.51733 -1.64846,1.16355 -3.4036,2.2102 -5.164667,3.19322 -5.560907,3.10391 -11.408495,5.38856 -17.526,7.12473 -16.714556,4.74362 -35.110845,2.71713 -50.800002,-4.48572 -4.352798,-1.99837 -8.767827,-4.40809 -12.530667,-7.39216 h -0.08467 l -2.6246668,3.72533 1.016,0.762 h 0.084667 c 0.520954,-0.41344 2.2359618,-1.9103 2.8710468,-0.99666 0.539496,0.77598 -0.0751,2.21202 -0.436711,2.94399 -0.912707,1.84785 -2.0695071,3.63872 -3.7043358,4.93895 -0.5674361,0.45127 -1.2652418,1.04673 -2.0319324,1.06079 -0.6234261,0.0113 -0.7750302,-0.56786 -0.7584101,-1.08907 0.025866,-0.81085 0.1250755,-1.01367 0.5102592,-2.07725 l -1.1015125,-0.76204 c -0.4763516,0.64372 -1.5728946,2.10201 -2.0370711,2.75462 -0.1424009,0.20024 -0.5224826,0.77343 -0.5224826,0.77343 0,0 1.7516394,1.40242 2.215816,1.73067 2.2809709,1.61299 4.7491398,3.03564 7.1966663,4.37981 10.467087,5.74836 21.853907,9.28158 33.697335,10.70255 16.521769,1.98238 33.375093,-1.21743 48.429335,-8.12995 3.5179,-1.61544 6.894405,-3.57878 10.160005,-5.65099 1.39869,-0.88756 2.70425,-1.98476 4.14867,-2.78952 l -2.62467,-3.64066 v -0.0847 l 1.016,-0.84667 c 0.762,0.70121 3.72279,2.44746 3.14113,0 -0.0737,-0.31199 -0.1651,-0.62801 -0.26924,-0.93133 -0.71543,-2.08752 -2.02184,-3.99694 -3.63389,-5.49576 -0.53086,-0.49346 -2.10227,-1.964 -2.92015,-1.22649 -0.65702,0.59313 0.10075,2.28382 0.38015,2.91225 m 157.64934,0 -1.10067,0.84667 h -0.0847 c -0.56049,-0.98382 -1.3335,-1.87597 -1.99644,-2.794 -0.1778,-0.24727 -0.72839,-0.95402 -0.72839,-0.95402 0,0 -1.71339,1.16448 -2.18583,1.49795 -1.64846,1.16356 -3.4036,2.2102 -5.16467,3.19322 -5.56091,3.10391 -11.40883,5.38856 -17.526,7.12473 -16.71489,4.74362 -35.11042,2.71713 -50.8,-4.48572 -4.35272,-1.99837 -8.76808,-4.40809 -12.53067,-7.39216 h -0.0847 l -2.62466,3.72533 1.016,0.762 h 0.0847 c 0.5207,-0.41344 2.23605,-1.91029 2.87105,-0.99666 0.53933,0.77598 -0.0754,2.21202 -0.43688,2.94399 -0.91271,1.84785 -2.06925,3.63872 -3.70417,4.93895 -0.56726,0.45127 -1.26492,1.04673 -2.032,1.06079 -0.62314,0.0113 -0.7747,-0.56786 -0.75861,-1.08907 0.0268,-0.58755 0.14138,-1.14962 0.50313,-2.01709 l -1.10826,-0.79159 c -0.47667,0.64372 -1.55895,2.0714 -2.02292,2.72401 -0.14224,0.20016 -0.56168,0.75337 -0.56168,0.75337 0,0 1.79104,1.42248 2.25501,1.75073 2.28092,1.61299 4.74895,3.03564 7.19667,4.37981 10.46734,5.74836 21.85416,9.28158 33.69733,10.70255 16.52186,1.98238 33.37476,-1.21743 48.42934,-8.12995 3.5179,-1.61544 6.8944,-3.57878 10.16,-5.65099 1.39869,-0.88756 2.70425,-1.98476 4.14866,-2.78952 l -2.62466,-3.64066 v -0.0847 l 1.016,-0.84667 c 0.762,0.70113 3.72279,2.44746 3.14113,0 -0.0737,-0.31199 -0.1651,-0.628 -0.26924,-0.93133 -0.71543,-2.08752 -2.02184,-3.99691 -3.63389,-5.49576 -0.53086,-0.49346 -2.10228,-1.96401 -2.92016,-1.22649 -0.65701,0.59315 0.10076,2.28382 0.38016,2.91225 m -149.60601,94.488 c 4.60841,-6.0706 8.49376,-12.56961 11.36735,-19.64267 6.56505,-16.15728 7.78087,-34.75583 3.03784,-51.562 -1.83981,-6.5184 -4.34255,-12.82014 -7.70382,-18.71133 -0.79756,-1.39752 -1.59173,-2.83152 -2.51714,-4.14867 -0.22437,-0.32035 -0.83589,-1.2094 -0.83589,-1.2094 0,0 -2.73281,1.79117 -3.77167,2.4977 -0.27771,0.18888 -1.12488,0.82066 -1.12488,0.82066 0,0 0.61434,0.98763 0.81077,1.27771 0.55626,0.82101 1.09728,1.67547 1.58326,2.54 1.8305,3.25687 3.53907,6.52755 4.94962,9.99067 5.66843,13.91302 7.10268,29.62334 3.81762,44.28066 -0.92202,4.11353 -2.25383,8.08423 -3.74396,12.02267 -1.79663,4.74624 -4.36626,9.20919 -7.10438,13.462 -0.7493,1.16332 -1.58327,2.27499 -2.40538,3.38667 -0.23622,0.31919 -1.01965,1.32051 -1.01965,1.32051 0,0 0.98832,0.85542 1.27365,1.07132 1.12776,0.85344 2.20726,1.82457 3.38666,2.6035 m 7.62,0.254 c 3.69316,-4.8641 6.92997,-9.97204 9.55802,-15.494 9.01531,-18.93655 10.51995,-38.6882 4.10474,-58.49211 -1.30784,-4.03732 -5.01175,-13.5672 -9.09769,-19.50377 -0.69221,-1.00573 -1.21015,-1.78297 -1.21015,-1.78297 l -4.85417,3.30818 c 0,0 0.41637,0.79484 0.58147,1.03267 0.54948,0.79443 1.05156,1.61849 1.53416,2.45533 1.92532,3.3346 3.62458,6.70459 5.14096,10.24467 5.9419,13.86738 7.2246,30.34005 3.66098,44.958 -0.97197,3.98721 -2.03369,8.00007 -3.69993,11.76867 -2.03285,4.59799 -4.24773,8.99498 -7.00786,13.208 -0.7366,1.12437 -1.52654,2.23266 -2.34103,3.302 -0.24215,0.31665 -1.02981,1.32051 -1.02981,1.32051 0,0 1.03404,0.89945 1.35831,1.13567 1.11506,0.81195 2.13276,1.80848 3.302,2.53915 m 7.62,0.254 c 10.87798,-14.32899 16.92064,-31.28704 17.26777,-49.276 0.13547,-7.03538 -0.98129,-14.08405 -2.62043,-20.91267 -1.63576,-6.81304 -4.45178,-13.34931 -7.81558,-19.47333 -0.81111,-1.47582 -1.7272,-2.88902 -2.61451,-4.318 -0.22606,-0.36293 -0.89084,-1.26277 -0.89084,-1.26277 0,0 -2.57626,1.74407 -3.66507,2.43203 -0.30311,0.19154 -1.22607,0.84214 -1.22607,0.84214 0,0 0.66473,1.05188 0.88486,1.37527 0.62653,0.92109 1.20057,1.91279 1.75683,2.87866 1.98544,3.44729 3.75666,7.02751 5.16128,10.75267 5.14604,13.64454 6.51172,28.47425 3.429,42.75667 -0.99483,4.60891 -2.55693,8.97771 -4.22148,13.37733 -1.68148,4.44263 -4.20116,8.65378 -6.78857,12.61533 -0.71374,1.09305 -1.46981,2.1861 -2.26991,3.21734 -0.24977,0.32342 -1.0234,1.36716 -1.0234,1.36716 0,0 0.9455,0.80538 1.24946,1.03483 1.12606,0.8509 2.18778,1.84658 3.38666,2.59334 m 7.59625,0.25604 c 0.38326,-0.34703 0.60287,-0.7488 0.93138,-1.17298 0.74337,-0.96097 1.43679,-1.96088 2.12429,-2.96333 2.65176,-3.87012 5.06222,-7.98153 6.92912,-12.29106 5.47031,-12.62262 8.13054,-26.14388 7.04088,-39.88131 -0.4589,-5.77519 -1.67725,-11.36082 -3.22242,-16.93003 -1.63406,-5.88814 -4.16898,-11.77544 -7.30673,-17.018 -0.73067,-1.22105 -1.43256,-2.45581 -2.22165,-3.64066 -0.22268,-0.33355 -0.8668,-1.35526 -0.8668,-1.35526 0,0 -1.66135,1.09874 -2.11432,1.39387 -0.65108,0.42439 -1.2937,0.86355 -1.94733,1.28482 -0.23707,0.15298 -0.88656,0.52314 -0.88656,0.52314 0,0 0.67574,1.13979 0.87894,1.45543 0.74676,1.16027 1.43087,2.35889 2.11328,3.556 9.29979,16.30062 12.23162,36.6641 7.84088,54.71804 -2.02184,7.47446 -5.04857,14.56486 -8.82725,21.31262 -1.06087,1.894 -2.38506,3.64744 -3.6305,5.41867 -0.31581,0.44958 -1.45981,1.97087 -1.45981,1.97087 0,0 0.94927,0.7935 1.26169,1.04326 1.04224,0.83228 2.37143,1.70834 3.36291,2.57591 m 11.05398,-95.01413 c 0,0 -2.78708,1.84913 -3.83356,2.53283 -0.29379,0.19185 -1.16003,0.76466 -1.16003,0.76466 0,0 0.71553,1.12482 0.91704,1.45993 0.76369,1.27178 1.52908,2.54263 2.30039,3.81 2.34103,3.84336 4.05299,8.13537 5.55075,12.36134 6.14426,17.33939 5.35516,37.05208 -1.90585,53.93266 -1.68995,3.92744 -3.70163,7.76817 -6.04774,11.34534 -1.12945,1.72296 -3.88619,5.46258 -3.88619,5.46258 0,0 0.45973,0.3972 0.84496,0.70115 0.87207,0.68919 1.73736,1.38938 2.62467,2.0574 0.26331,0.19897 1.14415,0.93115 1.14415,0.93115 0,0 0.5839,-0.78129 0.7744,-1.02428 0.72982,-0.93134 1.42324,-1.89992 2.08957,-2.87867 2.69155,-3.95224 5.23155,-8.11869 7.10269,-12.53067 1.84912,-4.36177 3.51197,-8.71093 4.7481,-13.29266 2.88629,-10.70026 3.24951,-22.11417 1.53332,-33.02 -0.61638,-3.91465 -1.42071,-7.93945 -2.74913,-11.684 -1.98205,-5.58775 -4.10549,-11.04866 -7.14163,-16.17134 -0.71036,-1.19882 -1.41394,-2.39786 -2.18864,-3.556 -0.20743,-0.30939 -0.71727,-1.20142 -0.71727,-1.20142 m -114.323567,9.19049 c 1.262634,-0.22547 1.614,1.74354 0.338666,1.9712 -1.262634,0.22547 -1.614,-1.74354 -0.338666,-1.9712 m 157.649337,0 c 1.26238,-0.22547 1.61375,1.74354 0.33867,1.9712 -1.26238,0.22547 -1.61375,-1.74354 -0.33867,-1.9712 m -109.220002,0.0847 c 1.262634,-0.22547 1.614001,1.74354 0.338667,1.97121 -1.262635,0.22547 -1.614001,-1.74354 -0.338667,-1.97121 m 157.649342,0 c 1.26238,-0.22547 1.61375,1.74354 0.33867,1.97121 -1.26238,0.22547 -1.61375,-1.74354 -0.33867,-1.97121 m -133.68867,8.69027 -1.10067,0.84667 h -0.0847 c -0.5605,-0.98383 -1.33351,-1.87596 -1.996448,-2.794 -0.1778,-0.24731 -0.718447,-0.9734 -0.718447,-0.9734 0,0 -1.72334,1.18388 -2.19578,1.5173 -1.64846,1.16357 -3.4036,2.21022 -5.164667,3.19329 -5.560907,3.10396 -11.408495,5.38844 -17.526,7.1247 -16.714217,4.74379 -35.111099,2.71712 -50.800002,-4.48573 -4.352798,-1.99839 -8.767827,-4.40808 -12.530667,-7.39216 h -0.08467 l -2.6246665,3.72533 1.016,0.762 h 0.084667 c 0.520954,-0.41342 2.2359625,-1.91033 2.8710475,-0.99669 0.539496,0.77605 -0.0751,2.21208 -0.436711,2.94403 -0.912707,1.84785 -2.0695078,3.63872 -3.7043365,4.93894 -0.5674445,0.45128 -1.2652334,1.04674 -2.0319324,1.06079 -0.6234261,0.0114 -0.7750302,-0.56786 -0.7584101,-1.08907 0.025866,-0.81093 0.16035,-1.07562 0.5102592,-2.07724 l -1.1015125,-0.76205 c -0.4763516,0.64372 -1.5728946,2.10202 -2.0370711,2.75463 -0.1424009,0.20023 -0.5224826,0.77343 -0.5224826,0.77343 0,0 1.7516479,1.40242 2.215816,1.73067 2.2809624,1.61298 4.7491398,3.03564 7.196667,4.3798 10.467087,5.74836 21.853907,9.28159 33.697335,10.70255 16.521769,1.98238 33.375093,-1.21742 48.429335,-8.12995 3.5179,-1.61544 6.894397,-3.57877 10.159997,-5.65099 1.39869,-0.88756 2.70425,-1.98476 4.14867,-2.78951 l -2.62467,-3.64067 v -0.0847 l 1.016,-0.84666 c 0.762,0.70112 3.72279,2.44746 3.14113,0 -0.0737,-0.312 -0.1651,-0.62798 -0.26924,-0.93134 -0.71543,-2.08754 -2.02184,-3.99694 -3.63389,-5.49579 -0.53086,-0.49344 -2.10227,-1.96402 -2.92015,-1.22649 -0.65702,0.59318 0.10075,2.28389 0.38015,2.91228 m 157.64934,0 -1.10067,0.84667 h -0.0847 c -0.56049,-0.98383 -1.3335,-1.87596 -1.99644,-2.794 -0.1778,-0.24723 -0.72839,-0.95402 -0.72839,-0.95402 0,0 -1.71339,1.1645 -2.18583,1.49792 -1.64846,1.16357 -3.4036,2.21022 -5.16467,3.19329 -5.56091,3.10396 -11.40883,5.38844 -17.526,7.1247 -16.71405,4.74379 -35.11127,2.71712 -50.8,-4.48573 -4.35272,-1.99839 -8.76808,-4.40808 -12.53067,-7.39216 h -0.0847 l -2.62466,3.72533 1.016,0.762 h 0.0847 c 0.5207,-0.41342 2.23605,-1.91033 2.87105,-0.99669 0.53933,0.77605 -0.0754,2.21208 -0.43688,2.94403 -0.91271,1.84785 -2.06925,3.63872 -3.70417,4.93894 -0.56726,0.45128 -1.26492,1.04674 -2.032,1.06079 -0.62314,0.0114 -0.7747,-0.56786 -0.75861,-1.08907 0.0263,-0.81093 0.19101,-1.01586 0.55861,-2.02998 -0.31609,-0.20893 -1.13613,-0.76617 -1.13613,-0.76617 0,0 -1.58656,2.05888 -2.05053,2.71149 -0.14224,0.20015 -0.56168,0.75337 -0.56168,0.75337 0,0 1.79104,1.42248 2.25501,1.75073 2.28092,1.61298 4.74895,3.03564 7.19667,4.3798 10.46734,5.74836 21.85416,9.28159 33.69733,10.70255 16.52186,1.98238 33.37476,-1.21742 48.42934,-8.12995 3.5179,-1.61544 6.8944,-3.57877 10.16,-5.65099 1.39869,-0.88756 2.70425,-1.98476 4.14866,-2.78951 l -2.62466,-3.64067 v -0.0847 l 1.016,-0.84666 c 0.762,0.70112 3.72279,2.44746 3.14113,0 -0.0737,-0.312 -0.1651,-0.62798 -0.26924,-0.93134 -0.71543,-2.08754 -2.02184,-3.99694 -3.63389,-5.49579 -0.53086,-0.49344 -2.10228,-1.96393 -2.92016,-1.22649 -0.65701,0.59318 0.10076,2.28389 0.38016,2.91228 m -138.51467,3.6753 c 1.32588,-0.088 1.46388,2.09084 0.0847,2.14181 -1.32926,0.0491 -1.43679,-2.05206 -0.0847,-2.14181 m 7.62,0.28871 c 1.3462,-0.0573 1.45118,2.03674 0.0847,2.11354 -1.32164,0.0743 -1.44187,-2.05571 -0.0847,-2.11354 m 7.45066,0.29879 c 1.32758,-0.25595 1.75938,1.77063 0.42334,2.04597 -1.32673,0.27347 -1.75345,-1.78951 -0.42334,-2.04597 m 7.62,0.254 c 1.32419,-0.25535 1.75514,1.80095 0.42334,2.05774 -1.33181,0.25679 -1.76022,-1.80001 -0.42334,-2.05774 m 7.62,0.254 c 1.30302,-0.25129 1.75684,1.80061 0.42334,2.05774 -1.33181,0.25679 -1.76022,-1.80001 -0.42334,-2.05774 m -121.835329,4.6576 c 1.262634,-0.22547 1.614,1.74345 0.338666,1.97121 -1.262634,0.22547 -1.614,-1.74346 -0.338666,-1.97121 m 157.649329,0 c 1.26238,-0.22547 1.61375,1.74345 0.33867,1.97121 -1.26238,0.22547 -1.61375,-1.74346 -0.33867,-1.97121 m -109.219994,0.0847 c 1.262634,-0.22547 1.614001,1.74345 0.338667,1.9712 -1.262635,0.22547 -1.614001,-1.74345 -0.338667,-1.9712 m 157.649334,0 c 1.26238,-0.22547 1.61375,1.74345 0.33867,1.9712 -1.26238,0.22547 -1.61375,-1.74345 -0.33867,-1.9712 m -133.68867,8.69027 -1.10067,0.84666 h -0.0847 c -0.5605,-0.98382 -1.33351,-1.87596 -1.99644,-2.794 -0.1778,-0.24731 -0.718447,-0.9734 -0.718447,-0.9734 0,0 -1.72334,1.18388 -2.19578,1.5173 -1.64846,1.16358 -3.4036,2.21023 -5.164667,3.19329 -5.560907,3.10396 -11.408495,5.38844 -17.526,7.1247 -16.714217,4.74379 -35.111099,2.71712 -50.800002,-4.48572 -4.352798,-1.99839 -8.767827,-4.40809 -12.530667,-7.39217 h -0.08467 l -2.6246672,3.72534 1.016,0.762 h 0.084667 c 0.520954,-0.41343 2.2359622,-1.91034 2.8710472,-0.9967 0.539496,0.77606 -0.0751,2.21209 -0.436711,2.94403 -0.912707,1.84785 -2.0695075,3.63872 -3.7043362,4.93895 -0.5674361,0.45127 -1.2652334,1.04673 -2.0319324,1.06078 -0.6234261,0.0114 -0.7750302,-0.56786 -0.7584101,-1.08906 0.025866,-0.81094 0.079846,-0.80008 0.5102592,-2.07725 L 4.562011,151.83875 c -0.4763516,0.64372 -1.5728946,2.10201 -2.0370711,2.75462 -0.1424009,0.20024 -0.5224826,0.77343 -0.5224826,0.77343 0,0 1.7516479,1.40242 2.215816,1.73067 2.2809624,1.61299 4.7491398,3.03564 7.1966667,4.37981 10.467087,5.74836 21.853992,9.28158 33.697335,10.70254 16.521854,1.9823 33.375008,-1.21742 48.429335,-8.12995 3.5179,-1.61544 6.8944,-3.57877 10.16,-5.65099 1.39869,-0.88756 2.70425,-1.98475 4.14867,-2.78951 l -2.62467,-3.64067 v -0.0847 l 1.016,-0.84667 c 0.762,0.70112 3.72279,2.44746 3.14113,0 -0.0737,-0.312 -0.1651,-0.62797 -0.26924,-0.93133 -0.71543,-2.08754 -2.02184,-3.99695 -3.63389,-5.4958 -0.53086,-0.49344 -2.10227,-1.96401 -2.92015,-1.22648 -0.65702,0.59317 0.10075,2.28388 0.38015,2.91228 m 157.64934,0 -1.10067,0.84666 h -0.0847 c -0.56049,-0.98382 -1.3335,-1.87596 -1.99644,-2.794 -0.1778,-0.24722 -0.72839,-0.95402 -0.72839,-0.95402 0,0 -1.71339,1.1645 -2.18583,1.49792 -1.64846,1.16358 -3.4036,2.21023 -5.16467,3.19329 -5.56091,3.10396 -11.40883,5.38844 -17.526,7.1247 -16.71405,4.74379 -35.11127,2.71712 -50.8,-4.48572 -4.35272,-1.99839 -8.76808,-4.40809 -12.53067,-7.39217 h -0.0847 l -2.62466,3.72534 1.016,0.762 h 0.0847 c 0.5207,-0.41343 2.23605,-1.91034 2.87105,-0.9967 0.53933,0.77606 -0.0754,2.21209 -0.43688,2.94403 -0.91271,1.84785 -2.06925,3.63872 -3.70417,4.93895 -0.56726,0.45127 -1.26492,1.04673 -2.032,1.06078 -0.62314,0.0114 -0.7747,-0.56786 -0.75861,-1.08906 0.0263,-0.81094 0.18006,-1.00567 0.51814,-2.02858 l -1.09206,-0.80604 c -0.47667,0.64372 -1.59016,2.09734 -2.05413,2.74995 -0.14224,0.20015 -0.56168,0.75337 -0.56168,0.75337 0,0 1.79104,1.42248 2.25501,1.75073 2.28092,1.61299 4.74895,3.03564 7.19667,4.37981 10.46734,5.74836 21.85416,9.28158 33.69733,10.70254 16.52186,1.9823 33.37476,-1.21742 48.42934,-8.12995 3.5179,-1.61544 6.8944,-3.57877 10.16,-5.65099 1.39869,-0.88756 2.70425,-1.98475 4.14866,-2.78951 l -2.62466,-3.64067 v -0.0847 l 1.016,-0.84667 c 0.762,0.70112 3.72279,2.44746 3.14113,0 -0.0737,-0.312 -0.1651,-0.62797 -0.26924,-0.93133 -0.71543,-2.08754 -2.02184,-3.99695 -3.63389,-5.4958 -0.53086,-0.49344 -2.10228,-1.96393 -2.92016,-1.22648 -0.65701,0.59317 0.10076,2.28388 0.38016,2.91228 m -230.039342,9.42839 c 1.262634,-0.22547 1.614,1.74346 0.338666,1.97121 -1.262634,0.22547 -1.614,-1.74345 -0.338666,-1.97121 m 157.649332,0 c 1.26238,-0.22547 1.61375,1.74346 0.33867,1.97121 -1.26238,0.22547 -1.61375,-1.74345 -0.33867,-1.97121 m -109.219997,0.0847 c 1.262634,-0.22547 1.614001,1.74345 0.338667,1.97121 -1.262635,0.22547 -1.614001,-1.74346 -0.338667,-1.97121 m 157.649337,0 c 1.26238,-0.22547 1.61375,1.74345 0.33867,1.97121 -1.26238,0.22547 -1.61375,-1.74346 -0.33867,-1.97121 m -133.68867,8.69027 -1.10067,0.84667 h -0.0847 c -0.5605,-0.98383 -1.33351,-1.87596 -1.996443,-2.794 -0.1778,-0.24731 -0.752414,-0.95441 -0.752414,-0.95441 0,0 -1.689373,1.16489 -2.161813,1.49831 -1.64846,1.16357 -3.4036,2.21022 -5.164667,3.19328 -5.560907,3.10397 -11.408495,5.38844 -17.526,7.1247 -16.714217,4.74388 -35.111099,2.71713 -50.800002,-4.48572 -4.352798,-1.99839 -8.767827,-4.40809 -12.530667,-7.39216 h -0.08467 l -2.6246669,3.72533 1.016,0.762 h 0.084667 c 0.520954,-0.41343 2.2359619,-1.91033 2.8710469,-0.9967 0.539496,0.77606 -0.0751,2.21209 -0.436711,2.94403 -0.912707,1.84785 -2.0695072,3.63872 -3.7043359,4.93895 -0.5674361,0.45127 -1.2652334,1.04673 -2.0319324,1.06079 -0.6234261,0.0113 -0.7750302,-0.56786 -0.7584101,-1.08907 0.025866,-0.81094 0.1595779,-1.02909 0.5102592,-2.07725 l -1.1015125,-0.76204 c -0.4763516,0.64372 -1.5728946,2.10201 -2.0370711,2.75462 -0.1424009,0.20024 -0.5224826,0.77343 -0.5224826,0.77343 0,0 1.7516479,1.40242 2.215816,1.73067 2.2809539,1.61299 4.7491482,3.03564 7.1966664,4.37981 10.467087,5.74836 21.853907,9.28158 33.697335,10.70221 16.521854,1.98289 33.375008,-1.21717 48.429335,-8.12961 3.5179,-1.61544 6.894403,-3.57878 10.160003,-5.65099 1.39869,-0.88756 2.70425,-1.98476 4.14867,-2.78952 l -2.62467,-3.64066 v -0.0847 l 1.016,-0.84667 c 0.762,0.70121 3.72279,2.44746 3.14113,0 -0.0737,-0.31199 -0.1651,-0.62797 -0.26924,-0.93133 -0.71543,-2.08754 -2.02184,-3.99694 -3.63389,-5.4958 -0.53086,-0.49344 -2.10227,-1.96401 -2.92015,-1.22648 -0.65702,0.59318 0.10075,2.28388 0.38015,2.91228 m 157.64934,0 -1.10067,0.84667 h -0.0847 c -0.56049,-0.98383 -1.3335,-1.87596 -1.99644,-2.794 -0.1778,-0.24731 -0.72839,-0.95403 -0.72839,-0.95403 0,0 -1.71339,1.16451 -2.18583,1.49793 -1.64846,1.16357 -3.4036,2.21022 -5.16467,3.19328 -5.56091,3.10397 -11.40883,5.38844 -17.526,7.1247 -16.71405,4.74388 -35.11127,2.71713 -50.8,-4.48572 -4.35272,-1.99839 -8.76808,-4.40809 -12.53067,-7.39216 h -0.0847 l -2.62466,3.72533 1.016,0.762 h 0.0847 c 0.5207,-0.41343 2.23605,-1.91033 2.87105,-0.9967 0.53933,0.77597 -0.0754,2.21209 -0.43688,2.94403 -0.91271,1.84785 -2.06925,3.63872 -3.70417,4.93895 -0.56726,0.45127 -1.26492,1.04673 -2.032,1.06079 -0.62314,0.0113 -0.7747,-0.56786 -0.75861,-1.08907 0.0263,-0.81094 0.20646,-1.11136 0.55429,-2.04402 l -1.16573,-0.80331 c -0.47667,0.64372 -1.55264,2.11005 -2.01661,2.76266 -0.14224,0.20016 -0.56168,0.75337 -0.56168,0.75337 0,0 1.79104,1.42248 2.25501,1.75073 2.28092,1.61299 4.74895,3.03564 7.19667,4.37981 10.46734,5.74836 21.85416,9.28158 33.69733,10.70221 16.52186,1.98289 33.37476,-1.21717 48.42934,-8.12961 3.5179,-1.61544 6.8944,-3.57878 10.16,-5.65099 1.39869,-0.88756 2.70425,-1.98476 4.14866,-2.78952 l -2.62466,-3.64066 v -0.0847 l 1.016,-0.84667 c 0.762,0.70113 3.72279,2.44746 3.14113,0 -0.0737,-0.31199 -0.1651,-0.62797 -0.26924,-0.93133 -0.71543,-2.08754 -2.02184,-3.99694 -3.63389,-5.4958 -0.53086,-0.49344 -2.10228,-1.96393 -2.92016,-1.22648 -0.65701,0.59318 0.10076,2.28388 0.38016,2.91228 m -230.039345,9.4284 c 1.262634,-0.22547 1.614,1.74345 0.338666,1.9712 -1.262634,0.22547 -1.614,-1.74345 -0.338666,-1.9712 m 157.649335,0 c 1.26238,-0.22547 1.61375,1.74345 0.33867,1.9712 -1.26238,0.22547 -1.61375,-1.74345 -0.33867,-1.9712 m -109.22,0.0847 c 1.262634,-0.22547 1.614001,1.74346 0.338667,1.97121 -1.262635,0.22547 -1.614001,-1.74345 -0.338667,-1.97121 m 157.64934,0 c 1.26238,-0.22547 1.61375,1.74346 0.33867,1.97121 -1.26238,0.22547 -1.61375,-1.74345 -0.33867,-1.97121 m -133.68867,8.69027 -1.10067,0.84667 h -0.0847 c -0.5605,-0.98383 -1.33351,-1.87596 -1.996446,-2.794 -0.1778,-0.24723 -0.748509,-0.91417 -0.748509,-0.91417 0,0 -1.198824,0.80529 -1.573051,1.05531 -1.340274,0.89577 -2.680547,1.78892 -4.064,2.61899 -4.364567,2.61857 -9.053323,4.85631 -13.885334,6.46854 -16.720228,5.57868 -34.876064,5.56683 -51.392669,-0.83067 -3.980434,-1.54178 -7.85114,-3.39327 -11.514667,-5.58707 -1.171702,-0.70163 -2.357035,-1.41655 -3.471333,-2.20641 -0.718228,-0.50902 -1.535092,-1.25882 -2.370667,-1.53585 l -2.5399999,3.72533 0.9313333,0.67733 h 0.084667 c 0.520954,-0.41342 2.2359616,-1.91033 2.8710466,-0.99669 0.443992,0.63864 0.05325,1.70358 -0.177038,2.35136 -0.727456,2.04622 -2.2096306,4.0894 -3.879342,5.46439 -0.5741585,0.47244 -1.5429654,1.3318 -2.3669414,1.10236 -0.6331966,-0.17611 -0.5377773,-1.08035 -0.4435856,-1.57142 0.2146977,-1.12005 0.283466,-0.93064 0.4800082,-1.54038 l -1.0652377,-0.74264 -2.615577,3.55306 c 4.4869355,3.56108 9.7017835,6.44398 14.9013335,8.83158 20.285033,9.31249 43.50165,11.01006 64.854669,4.37388 6.397414,-1.98797 12.579774,-4.71508 18.37267,-8.07635 2.63652,-1.53077 5.0546,-3.48319 7.70467,-4.95977 l -2.62467,-3.64067 v -0.0847 l 1.016,-0.84666 c 0.59013,0.54288 1.30895,1.12843 2.11667,1.29971 0.83566,0.17721 1.19888,-0.47921 1.04394,-1.21505 -0.0652,-0.31267 -0.16172,-0.62746 -0.26078,-0.93133 -0.6858,-2.11929 -2.03877,-4.07111 -3.66183,-5.58046 -0.53086,-0.49344 -2.10227,-1.96393 -2.92015,-1.22649 -0.65702,0.59318 0.10075,2.28389 0.38015,2.91228 m 157.64934,0 -1.10067,0.84667 h -0.0847 c -0.56049,-0.98383 -1.3335,-1.87596 -1.99644,-2.794 -0.1778,-0.24731 -0.72839,-0.95402 -0.72839,-0.95402 0,0 -1.71339,1.1645 -2.18583,1.49792 -1.64846,1.16357 -3.4036,2.21022 -5.16467,3.19329 -5.56091,3.10396 -11.40883,5.38844 -17.526,7.1247 -16.71405,4.74387 -35.11127,2.71695 -50.8,-4.48573 -4.35272,-1.99839 -8.76808,-4.40808 -12.53067,-7.39216 h -0.0847 l -2.62466,3.72533 1.016,0.762 h 0.0847 c 0.5207,-0.41342 2.23605,-1.91033 2.87105,-0.99669 0.53933,0.77605 -0.0754,2.212 -0.43688,2.94403 -0.91271,1.84785 -2.06925,3.63872 -3.70417,4.9386 -0.56726,0.45128 -1.26492,1.04733 -2.032,1.06088 -0.62314,0.0118 -0.7747,-0.56727 -0.75861,-1.08882 0.0263,-0.8111 0.23981,-1.21106 0.55146,-2.0155 l -1.14578,-0.79737 c -0.47667,0.64372 -1.56976,2.07543 -2.03373,2.72821 -0.14224,0.19981 -0.56168,0.75337 -0.56168,0.75337 0,0 1.79104,1.42256 2.25501,1.75107 2.28092,1.6129 4.74895,3.0353 7.19667,4.3798 10.46734,5.74802 21.85416,9.28116 33.69733,10.70187 16.52186,1.98289 33.37476,-1.21751 48.42934,-8.12969 3.5179,-1.61544 6.8944,-3.57886 10.16,-5.65066 1.39869,-0.88815 2.70425,-1.98458 4.14866,-2.78976 l -2.62466,-3.64067 v -0.0847 l 1.016,-0.84666 c 0.762,0.70112 3.72279,2.44746 3.14113,0 -0.0737,-0.312 -0.1651,-0.62798 -0.26924,-0.93134 -0.71543,-2.08754 -2.02184,-3.99694 -3.63389,-5.49579 -0.53086,-0.49344 -2.10228,-1.96402 -2.92016,-1.22649 -0.65701,0.59318 0.10076,2.28389 0.38016,2.91228 m -140.37734,-2.50994 c 1.29201,-0.21522 1.63068,1.80797 0.33867,2.05715 -1.37668,0.26534 -1.73821,-1.82398 -0.33867,-2.05715 m 7.62,0.25434 c 1.21581,-0.21514 1.64169,1.7592 0.42333,2.05926 -1.40038,0.34493 -1.87621,-1.8023 -0.42333,-2.05926 m 7.62,0.25408 c 1.30133,-0.22606 1.60443,1.93912 0.254,2.13809 -1.31318,0.19346 -1.58835,-1.90635 -0.254,-2.13809 m 7.62,0.26145 c 1.36652,-0.15036 1.59258,2.02938 0.16933,2.14376 -1.29116,0.10364 -1.46304,-2.00143 -0.16933,-2.14376 m 7.366,0.35179 c 1.29371,-0.47802 2.02015,1.51681 0.67733,1.99111 -1.25137,0.4423 -1.89653,-1.54051 -0.67733,-1.99111 m -119.887694,10.8169 c 1.262634,-0.22521 1.614,1.74329 0.338666,1.97104 -1.262634,0.22522 -1.614,-1.74328 -0.338666,-1.97104 m 157.649334,0 c 1.26238,-0.22521 1.61375,1.74329 0.33867,1.97104 -1.26238,0.22522 -1.61375,-1.74328 -0.33867,-1.97104 m -109.219999,0.0847 c 1.262634,-0.22521 1.614001,1.74329 0.338667,1.97104 -1.262635,0.22521 -1.614001,-1.74329 -0.338667,-1.97104 m 157.649339,0 c 1.26238,-0.22521 1.61375,1.74329 0.33867,1.97104 -1.26238,0.22521 -1.61375,-1.74329 -0.33867,-1.97104 z"
     id="path7530"
     inkscape:label="#1 3mm ply 268x104" />
</svg>
