<?xml version="1.0" encoding="UTF-8" standalone="no"?>
<svg
   id="svg363"
   version="1.1"
   viewBox="0 0 210 322.00003"
   height="322.00003mm"
   width="210mm"
   sodipodi:docname="carrete-18-1.2-portrait.svg"
   inkscape:version="1.2.2 (b0a8486, 2022-12-01)"
   inkscape:export-filename="carrete-18-ALT-portrait-raster.png"
   inkscape:export-xdpi="300.12"
   inkscape:export-ydpi="300.12"
   xmlns:inkscape="http://www.inkscape.org/namespaces/inkscape"
   xmlns:sodipodi="http://sodipodi.sourceforge.net/DTD/sodipodi-0.dtd"
   xmlns="http://www.w3.org/2000/svg"
   xmlns:svg="http://www.w3.org/2000/svg"
   xmlns:rdf="http://www.w3.org/1999/02/22-rdf-syntax-ns#"
   xmlns:cc="http://creativecommons.org/ns#"
   xmlns:dc="http://purl.org/dc/elements/1.1/">
  <sodipodi:namedview
     id="namedview862"
     pagecolor="#ffffff"
     bordercolor="#666666"
     borderopacity="1.0"
     inkscape:showpageshadow="2"
     inkscape:pageopacity="0.0"
     inkscape:pagecheckerboard="0"
     inkscape:deskcolor="#d1d1d1"
     inkscape:document-units="mm"
     showgrid="false"
     inkscape:zoom="1.0521511"
     inkscape:cx="2.3760847"
     inkscape:cy="791.23619"
     inkscape:window-width="3440"
     inkscape:window-height="1384"
     inkscape:window-x="0"
     inkscape:window-y="0"
     inkscape:window-maximized="1"
     inkscape:current-layer="svg363" />
  <defs
     id="defs357" />
  <metadata
     id="metadata360">
    <rdf:RDF>
      <cc:Work
         rdf:about="">
        <dc:format>image/svg+xml</dc:format>
        <dc:type
           rdf:resource="http://purl.org/dc/dcmitype/StillImage" />
      </cc:Work>
    </rdf:RDF>
    <rdf:RDF>
      <cc:Work
         rdf:about="">
        <dc:title />
      </cc:Work>
    </rdf:RDF>
    <rdf:RDF>
      <cc:Work
         rdf:about="">
        <dc:title />
      </cc:Work>
    </rdf:RDF>
    <rdf:RDF>
      <cc:Work
         rdf:about="">
        <dc:title />
      </cc:Work>
    </rdf:RDF>
    <rdf:RDF>
      <cc:Work
         rdf:about="">
        <dc:title />
      </cc:Work>
    </rdf:RDF>
    <rdf:RDF>
      <cc:Work
         rdf:about="">
        <dc:title />
      </cc:Work>
    </rdf:RDF>
    <rdf:RDF>
      <cc:Work
         rdf:about="">
        <dc:title />
      </cc:Work>
    </rdf:RDF>
    <rdf:RDF>
      <cc:Work
         rdf:about="">
        <dc:title />
      </cc:Work>
    </rdf:RDF>
    <rdf:RDF>
      <cc:Work
         rdf:about="">
        <dc:title />
      </cc:Work>
    </rdf:RDF>
    <rdf:RDF>
      <cc:Work
         rdf:about="">
        <dc:title />
      </cc:Work>
    </rdf:RDF>
    <rdf:RDF>
      <cc:Work
         rdf:about="">
        <dc:title />
      </cc:Work>
    </rdf:RDF>
    <rdf:RDF>
      <cc:Work
         rdf:about="">
        <dc:title />
      </cc:Work>
    </rdf:RDF>
    <rdf:RDF>
      <cc:Work
         rdf:about="">
        <dc:title />
      </cc:Work>
    </rdf:RDF>
    <rdf:RDF>
      <cc:Work
         rdf:about="">
        <dc:title />
      </cc:Work>
    </rdf:RDF>
    <rdf:RDF>
      <cc:Work
         rdf:about="">
        <dc:title />
      </cc:Work>
    </rdf:RDF>
    <rdf:RDF>
      <cc:Work
         rdf:about="">
        <dc:title />
      </cc:Work>
    </rdf:RDF>
    <rdf:RDF>
      <cc:Work
         rdf:about="">
        <dc:title />
      </cc:Work>
    </rdf:RDF>
    <rdf:RDF>
      <cc:Work
         rdf:about="">
        <dc:title />
      </cc:Work>
    </rdf:RDF>
    <rdf:RDF>
      <cc:Work
         rdf:about="">
        <dc:title />
      </cc:Work>
    </rdf:RDF>
    <rdf:RDF>
      <cc:Work
         rdf:about="">
        <dc:title />
      </cc:Work>
    </rdf:RDF>
    <rdf:RDF>
      <cc:Work
         rdf:about="">
        <dc:title />
      </cc:Work>
    </rdf:RDF>
    <rdf:RDF>
      <cc:Work
         rdf:about="">
        <dc:title />
      </cc:Work>
    </rdf:RDF>
    <rdf:RDF>
      <cc:Work
         rdf:about="">
        <dc:title />
      </cc:Work>
    </rdf:RDF>
    <rdf:RDF>
      <cc:Work
         rdf:about="">
        <dc:title />
      </cc:Work>
    </rdf:RDF>
    <rdf:RDF>
      <cc:Work
         rdf:about="">
        <dc:title />
      </cc:Work>
    </rdf:RDF>
    <rdf:RDF>
      <cc:Work
         rdf:about="">
        <dc:title />
      </cc:Work>
    </rdf:RDF>
    <rdf:RDF>
      <cc:Work
         rdf:about="">
        <dc:title />
      </cc:Work>
    </rdf:RDF>
    <rdf:RDF>
      <cc:Work
         rdf:about="">
        <dc:title />
      </cc:Work>
    </rdf:RDF>
    <rdf:RDF>
      <cc:Work
         rdf:about="">
        <dc:title />
      </cc:Work>
    </rdf:RDF>
    <rdf:RDF>
      <cc:Work
         rdf:about="">
        <dc:title />
      </cc:Work>
    </rdf:RDF>
  </metadata>
  <path
     style="display:inline;fill:#3201f1;stroke:none;stroke-width:0.0846667"
     d="m 5.1885004,199.11994 1.0173552,1.32239 v 0.10176 c -1.1821662,0.67341 -2.2541344,1.60213 -3.3572599,2.3986 -0.2971188,0.21362 -1.169634,0.86318 -1.169634,0.86318 0,0 1.422522,2.07049 1.8232183,2.63809 1.3981175,1.98054 2.6557686,4.08924 3.8369616,6.20504 3.7296464,6.6811 6.4748734,13.70663 8.5610484,21.05644 5.69992,20.08154 3.264894,42.18357 -5.390024,61.03315 -2.4012334,5.22962 -5.2967445,10.53401 -8.8823923,15.05484 v 0.10176 l 4.4763429,3.15338 0.915617,-1.22066 v -0.10176 c -0.496788,-0.62589 -2.2954099,-2.68638 -1.1975834,-3.44939 0.9324144,-0.64817 2.6579554,0.0902 3.5374871,0.52468 2.2203697,1.09656 4.3722727,2.48638 5.9346237,4.45053 0.542245,0.68175 1.257747,1.52013 1.274642,2.44126 0.01358,0.749 -0.682339,0.93115 -1.308623,0.91118 -0.974314,-0.0311 -1.218022,-0.15027 -2.496016,-0.61305 l -0.915664,1.3234 c 0.773491,0.57231 2.525767,1.88974 3.309941,2.44742 0.240608,0.17108 0.929351,0.62773 0.929351,0.62773 0,0 1.685142,-2.10449 2.079567,-2.66216 1.938162,-2.74045 3.647617,-5.70581 5.262767,-8.64637 6.907208,-12.57558 11.152713,-26.25616 12.860145,-40.48531 2.382021,-19.84992 -1.462859,-40.09818 -9.768918,-58.18494 -1.941107,-4.22656 -4.300249,-8.28322 -6.790213,-12.20664 -1.066489,-1.68044 -2.38488,-3.24899 -3.351877,-4.98438 l -4.374604,3.15339 h -0.101775 l -1.017356,-1.22067 c 0.842572,-0.91549 2.940859,-4.47271 0,-3.77388 -0.374886,0.0885 -0.754614,0.19836 -1.1190817,0.32348 -2.5083567,0.85955 -4.8027084,2.42912 -6.6036851,4.3659 -0.5929398,0.6378 -2.35993543,2.52575 -1.473746,3.50838 0.7127029,0.78937 2.7442299,-0.12104 3.4993491,-0.45672 m 0,-189.4061927 1.0173553,1.3223877 v 0.101762 c -1.1821542,0.673395 -2.2541584,1.60212 -3.35726,2.398603 -0.2971187,0.213616 -1.146347,0.875117 -1.146347,0.875117 0,0 1.399235,2.058535 1.7999314,2.626144 1.3981295,1.980525 2.6557686,4.08922 3.8369616,6.20504 3.7296464,6.681098 6.4748734,13.707021 8.5610484,21.056433 5.69992,20.081935 3.264894,42.183059 -5.390024,61.033136 -2.4012334,5.22954 -5.2967445,10.53432 -8.8823923,15.05485 v 0.10176 l 4.4763429,3.15337 0.915617,-1.22066 v -0.10176 c -0.496788,-0.62559 -2.2953979,-2.68648 -1.1975834,-3.4494 0.9324144,-0.64797 2.6579554,0.0906 3.5374871,0.52489 2.2203697,1.09657 4.3722727,2.48608 5.9346237,4.45034 0.542245,0.68153 1.257747,1.51972 1.274642,2.44132 0.01358,0.74867 -0.682339,0.93076 -1.308623,0.91143 -0.705998,-0.0322 -1.381379,-0.16986 -2.423728,-0.60448 l -0.951171,1.3315 c 0.773491,0.57269 2.488986,1.87299 3.27316,2.43042 0.240511,0.17089 0.905247,0.67483 0.905247,0.67483 0,0 1.709246,-2.15183 2.10367,-2.70926 1.938163,-2.74039 3.647618,-5.70558 5.262768,-8.64637 C 30.337398,107.09932 34.582903,93.418748 36.290335,79.18989 38.672356,59.339869 34.827476,39.092123 26.521417,21.004953 24.58031,16.778408 22.221167,12.721745 19.731204,8.7983243 18.664715,7.1178823 17.346324,5.5493303 16.379327,3.8139593 l -4.374604,3.153371 h -0.101775 l -1.017356,-1.220663 c 0.842476,-0.915497 2.940859,-4.472708 0,-3.773879 -0.374886,0.08855 -0.754602,0.198358 -1.1190817,0.323476 -2.5083567,0.859546 -4.8026724,2.429119 -6.6036852,4.3659 C 2.5698854,7.2999603 0.80287777,9.1879263 1.6890792,10.17056 2.4018061,10.959918 4.4333091,10.049503 5.1884283,9.7138213 M 118.72487,189.45643 c -7.29441,-5.53672 -15.1036,-10.20474 -23.602556,-13.65718 -19.414529,-7.88752 -41.762485,-9.34825 -61.956718,-3.64978 -7.832486,2.21042 -15.404638,5.21731 -22.48347,9.25567 -1.6792547,0.95822 -3.4023434,1.91237 -4.9850259,3.02419 -0.3849314,0.26957 -1.4532107,1.00428 -1.4532107,1.00428 0,0 2.1522632,3.2833 3.0012272,4.53143 0.226958,0.33365 0.986102,1.35148 0.986102,1.35148 0,0 1.1867327,-0.7381 1.5352917,-0.9741 0.9865217,-0.66831 2.0132377,-1.31831 3.0520537,-1.90219 3.913443,-2.19923 7.84348,-4.25198 12.004757,-5.94667 16.717834,-6.81028 35.595303,-8.53344 53.207486,-4.58664 4.942803,1.10775 9.713982,2.70784 14.446397,4.49814 5.703063,2.15855 11.065726,5.2458 16.175886,8.53549 1.39784,0.90024 2.73362,1.9022 4.06941,2.88992 0.38353,0.2838 1.58672,1.22505 1.58672,1.22505 0,0 1.02787,-1.18741 1.28729,-1.53022 1.02549,-1.35493 2.1924,-2.65189 3.12836,-4.06887 m 0.3052,-9.15497 c -5.84468,-4.43711 -11.98236,-8.32594 -18.61753,-11.48338 -22.754084,-10.83136 -46.4876,-12.63909 -70.283907,-4.9316 -4.851229,1.57129 -16.302302,6.02131 -23.4356614,10.93033 -1.208482,0.83164 -2.1424108,1.45392 -2.1424108,1.45392 l 3.9750968,5.83199 c 0,0 0.9550767,-0.50024 1.2408527,-0.6986 0.9545837,-0.66017 1.9447707,-1.26339 2.9503147,-1.8432 4.006843,-2.31316 8.056211,-4.35472 12.309962,-6.17655 16.662994,-7.13884 36.4565,-8.67993 54.021376,-4.39845 4.791017,1.16776 9.612855,2.44335 14.141191,4.44524 5.524933,2.44235 10.808336,5.10339 15.870676,8.41952 1.35104,0.88498 2.68276,1.83405 3.96767,2.81261 0.38049,0.29093 1.58672,1.23725 1.58672,1.23725 0,0 1.08078,-1.24233 1.36462,-1.63192 0.97564,-1.33968 2.17306,-2.56239 3.05103,-3.96716 m 0.30521,-9.15497 c -17.21766,-13.06924 -37.594388,-20.32913 -59.209862,-20.74618 -8.453688,-0.16276 -16.923344,1.17896 -25.128589,3.14828 -8.186525,1.96527 -16.040486,5.34855 -23.399087,9.38995 -1.7733387,0.9745 -3.4714344,2.07513 -5.1884914,3.14118 -0.436096,0.2716 -1.5173402,1.07029 -1.5173402,1.07029 0,0 2.0956682,3.09522 2.9223182,4.40336 0.230154,0.36417 1.011913,1.47305 1.011913,1.47305 0,0 1.2639334,-0.79863 1.6525184,-1.06311 1.106778,-0.75273 2.298401,-1.44241 3.458987,-2.11072 4.142251,-2.38539 8.444234,-4.5134 12.920373,-6.20097 16.39523,-6.18266 34.214561,-7.82344 51.376265,-4.11974 5.53805,1.19523 10.787584,3.072 16.074152,5.07186 5.338246,2.0202 10.398343,5.04744 15.158533,8.15606 1.3134,0.85751 2.6268,1.76589 3.86594,2.72716 0.38862,0.30008 1.64277,1.22955 1.64277,1.22955 0,0 0.96774,-1.13596 1.24345,-1.50115 1.02244,-1.35289 2.21884,-2.62849 3.11615,-4.06887 m 0.30766,-9.12644 c -0.41699,-0.46046 -0.89976,-0.72431 -1.40945,-1.11899 -1.1547,-0.89312 -2.35619,-1.72622 -3.56073,-2.55221 -4.65032,-3.18593 -9.59057,-6.08195 -14.768887,-8.32492 -15.167293,-6.57225 -31.41439,-9.76835 -47.921241,-8.45919 -6.939448,0.55134 -13.651121,2.01511 -20.343064,3.87154 -7.075167,1.96323 -14.149329,5.00878 -20.44877,8.7786 -1.4672087,0.87785 -2.9508914,1.72113 -4.3746034,2.66918 -0.400792,0.26753 -1.6284752,1.0414 -1.6284752,1.0414 0,0 1.3202422,1.99602 1.6748692,2.54023 0.509945,0.78224 1.037638,1.5543 1.543835,2.3396 0.18382,0.28483 0.6286027,1.06515 0.6286027,1.06515 0,0 1.3695667,-0.81186 1.7488387,-1.05599 1.394176,-0.89719 2.834434,-1.71911 4.272877,-2.53898 19.586769,-11.17314 44.055454,-14.69556 65.749008,-9.42035 8.981284,2.42912 17.501087,6.06556 25.60916,10.60541 2.27583,1.27457 4.38275,2.86551 6.51105,4.36183 0.54022,0.37943 2.36819,1.75387 2.36819,1.75387 0,0 0.95347,-1.14049 1.25358,-1.51584 1.00007,-1.25219 2.05274,-2.84913 3.09521,-4.04034 M 5.4743001,148.73936 c 0,0 2.2219075,3.34851 3.0434395,4.60579 0.230526,0.35298 0.9188127,1.39371 0.9188127,1.39371 0,0 1.3515787,-0.85967 1.7542457,-1.10177 1.528166,-0.91753 3.055215,-1.8371 4.578082,-2.76378 4.618167,-2.8126 9.775434,-4.86942 14.853345,-6.66889 20.834948,-7.38196 44.521651,-6.4339 64.805295,2.28976 4.71919,2.03038 9.3342,4.44729 13.63251,7.266 2.0703,1.35697 6.56382,4.66902 6.56382,4.66902 0,0 0.47727,-0.55233 0.8425,-1.01517 0.82813,-1.04774 1.66947,-2.08733 2.47216,-3.15338 0.23908,-0.31635 1.11887,-1.37463 1.11887,-1.37463 0,0 -0.9388,-0.70152 -1.23077,-0.93039 -1.1191,-0.87684 -2.28294,-1.70994 -3.459,-2.51049 -4.749,-3.23374 -9.75539,-6.2854 -15.05681,-8.53346 -5.24108,-2.2216 -10.467015,-4.21942 -15.972405,-5.70455 -12.857394,-3.46771 -26.572312,-3.90409 -39.676718,-1.8422 -4.703829,0.74055 -9.540014,1.7069 -14.039452,3.30292 -6.71422,2.38131 -13.276034,4.9325 -19.431427,8.58024 -1.4404977,0.85345 -2.8812594,1.69876 -4.2728764,2.62952 -0.371762,0.24921 -1.4436215,0.86175 -1.4436215,0.86175 M 16.517559,286.09225 c -0.270924,-1.51697 2.095031,-1.93912 2.368586,-0.40688 0.270924,1.51697 -2.095031,1.93912 -2.368586,0.40688 m 0,-189.406187 c -0.270924,-1.516673 2.095031,-1.938823 2.368586,-0.406891 0.270924,1.516673 -2.095031,1.938823 -2.368586,0.406891 m 0.101775,131.221267 c -0.270924,-1.51699 2.095031,-1.93913 2.368599,-0.4069 0.270923,1.51699 -2.095032,1.93913 -2.368599,0.4069 m 0,-189.406207 c -0.270924,-1.516673 2.095031,-1.938823 2.368599,-0.406891 0.270923,1.516673 -2.095032,1.938823 -2.368599,0.406891 m 10.4422,160.618887 1.017356,1.32239 v 0.10176 c -1.182167,0.67341 -2.254147,1.60213 -3.35726,2.3986 -0.297167,0.21362 -1.169634,0.86318 -1.169634,0.86318 0,0 1.422546,2.07049 1.823182,2.6381 1.398141,1.98053 2.655792,4.08923 3.837046,6.20505 3.729707,6.68108 6.47473,13.70661 8.561013,21.05643 5.700121,20.08112 3.264882,42.18387 -5.390037,61.03314 -2.401258,5.22963 -5.296733,10.53402 -8.882392,15.05485 v 0.10176 l 4.476343,3.15337 0.915616,-1.22066 v -0.10176 c -0.496764,-0.6259 -2.295446,-2.68639 -1.197619,-3.4494 0.932499,-0.64817 2.658027,0.0902 3.537536,0.52468 2.22037,1.09657 4.372273,2.4864 5.934612,4.45055 0.542257,0.68174 1.257759,1.52009 1.274642,2.44124 0.0137,0.749 -0.682339,0.93115 -1.308623,0.91118 -0.97441,-0.0311 -1.292461,-0.19265 -2.496004,-0.61305 l -0.915676,1.3234 c 0.773491,0.57231 2.525779,1.88975 3.309953,2.44742 0.240596,0.17108 0.929351,0.62774 0.929351,0.62774 0,0 1.685143,-2.1045 2.079567,-2.66217 1.938151,-2.74044 3.647614,-5.70581 5.262752,-8.64637 6.907208,-12.57557 11.152725,-26.25615 12.860145,-40.48531 2.382026,-19.84992 -1.462847,-40.09818 -9.768919,-58.18494 -1.941106,-4.22656 -4.300237,-8.28321 -6.790209,-12.20663 -1.066489,-1.68044 -2.38488,-3.24899 -3.351865,-4.98438 l -4.374616,3.15339 h -0.101775 l -1.017344,-1.22067 c 0.842464,-0.91549 2.940859,-4.4727 0,-3.77387 -0.374898,0.0885 -0.754578,0.19835 -1.119095,0.32347 -2.50838,0.85955 -4.802708,2.42912 -6.603721,4.3659 -0.592916,0.6378 -2.359959,2.52575 -1.473746,3.50839 0.712763,0.78937 2.744314,-0.12105 3.499385,-0.45673 m 0,-189.4061907 1.017356,1.3223877 v 0.101762 c -1.182167,0.673395 -2.254147,1.60212 -3.357261,2.398603 -0.29707,0.213616 -1.146347,0.875117 -1.146347,0.875117 0,0 1.399259,2.058536 1.799896,2.626144 1.398141,1.980525 2.655792,4.08922 3.837046,6.20504 3.729707,6.681098 6.47473,13.707021 8.561013,21.056433 5.700121,20.080926 3.264882,42.184081 -5.390037,61.033144 -2.401258,5.22953 -5.296733,10.53432 -8.882392,15.05484 v 0.10176 l 4.476343,3.15337 0.915616,-1.22066 v -0.10176 c -0.496764,-0.62559 -2.295446,-2.68648 -1.197619,-3.44939 0.932499,-0.64798 2.658027,0.0906 3.537536,0.52488 2.22037,1.09657 4.372273,2.48608 5.934612,4.45034 0.542257,0.68153 1.257759,1.51972 1.274642,2.44132 0.0137,0.74867 -0.682339,0.93076 -1.308623,0.91143 -0.97441,-0.0316 -1.220654,-0.22949 -2.439216,-0.67114 -0.25105,0.37977 -0.920628,1.36499 -0.920628,1.36499 0,0 2.473943,1.90616 3.258117,2.46359 0.2405,0.1709 0.905247,0.67483 0.905247,0.67483 0,0 1.709247,-2.15183 2.103671,-2.70926 1.938151,-2.74039 3.647614,-5.70558 5.262752,-8.64637 C 52.21043,107.09939 56.455947,93.41882 58.163367,79.189962 60.545393,59.339942 56.70052,39.092196 48.394448,21.005025 46.453342,16.77848 44.094211,12.721817 41.604239,8.7983963 40.53775,7.1179543 39.219359,5.5494023 38.252374,3.8140313 l -4.374616,3.153371 h -0.101775 l -1.017344,-1.220663 c 0.842463,-0.915497 2.940859,-4.472708 0,-3.773879 -0.374898,0.08855 -0.754578,0.198358 -1.119095,0.323476 -2.50838,0.859546 -4.802708,2.429119 -6.603721,4.3659 -0.592916,0.637796 -2.359851,2.525763 -1.473746,3.5083957 0.712763,0.789358 2.744314,-0.121057 3.499385,-0.4567387 M 31.477689,176.13093 c -0.10574,-1.59297 2.512346,-1.75876 2.573592,-0.10176 0.059,1.59702 -2.465748,1.72621 -2.573592,0.10176 m 0.346913,-9.15497 c -0.06885,-1.61738 2.44734,-1.74351 2.539622,-0.10176 0.08928,1.58787 -2.470133,1.73232 -2.539622,0.10176 m 0.359025,-8.95152 c -0.307548,-1.59501 2.127583,-2.11379 2.45843,-0.50862 0.328601,1.59399 -2.150268,2.10667 -2.45843,0.50862 m 0.305206,-9.15497 c -0.306828,-1.59094 2.164015,-2.1087 2.472573,-0.50862 0.308558,1.60009 -2.162886,2.1148 -2.472573,0.50862 m 0.305205,-9.15497 c -0.301949,-1.5655 2.163607,-2.11074 2.472573,-0.50862 0.308558,1.60009 -2.162885,2.1148 -2.472573,0.50862 m 5.596556,146.37781 c -0.270924,-1.51697 2.094923,-1.93912 2.368598,-0.40688 0.270924,1.51697 -2.094935,1.93912 -2.368598,0.40688 m 0,-189.406175 c -0.270924,-1.516673 2.094923,-1.938823 2.368598,-0.406891 0.270924,1.516673 -2.094935,1.938821 -2.368598,0.406891 m 0.101775,131.221255 c -0.270924,-1.51698 2.094923,-1.93913 2.368587,-0.4069 0.270924,1.51699 -2.094924,1.93913 -2.368587,0.4069 m 0,-189.406195 c -0.270924,-1.516673 2.094923,-1.938823 2.368587,-0.406891 0.270924,1.516673 -2.094924,1.938823 -2.368587,0.406891 m 10.442197,160.618885 1.017344,1.32239 v 0.10176 c -1.182155,0.67341 -2.254147,1.60214 -3.357261,2.39861 -0.297167,0.21361 -1.169634,0.86316 -1.169634,0.86316 0,0 1.422546,2.07049 1.823183,2.6381 1.398153,1.98053 2.655804,4.08923 3.837045,6.20505 3.729707,6.6811 6.47473,13.70661 8.561014,21.05643 5.700126,20.08113 3.264887,42.18387 -5.390025,61.03314 -2.401258,5.22963 -5.296745,10.53402 -8.882405,15.05485 v 0.10176 l 4.476355,3.15338 0.915617,-1.22066 v -0.10176 c -0.496776,-0.62589 -2.295458,-2.68637 -1.197631,-3.44939 0.932511,-0.64817 2.658039,0.0902 3.537536,0.52468 2.22037,1.09656 4.372272,2.48639 5.934624,4.45054 0.542245,0.68174 1.257752,1.5201 1.274634,2.44124 0.0137,0.74901 -0.682343,0.93115 -1.308615,0.91118 -0.974423,-0.0311 -0.961373,-0.0959 -2.496016,-0.61304 l -0.915665,1.32339 c 0.773492,0.57232 2.525768,1.88975 3.309942,2.44743 0.240608,0.17109 0.929351,0.62773 0.929351,0.62773 0,0 1.685147,-2.1045 2.079571,-2.66217 1.938163,-2.74044 3.647614,-5.70581 5.262764,-8.64636 6.907209,-12.57557 11.152713,-26.25626 12.860134,-40.48532 2.381924,-19.85001 -1.462848,-40.09807 -9.768919,-58.18493 -1.941107,-4.22655 -4.300237,-8.28321 -6.790209,-12.20664 -1.066489,-1.68044 -2.384869,-3.24899 -3.35187,-4.98437 l -4.374616,3.15338 h -0.101775 l -1.017356,-1.22066 c 0.842463,-0.9155 2.940859,-4.47271 0,-3.77388 -0.374898,0.0885 -0.754567,0.19836 -1.119083,0.32347 -2.50838,0.85955 -4.802721,2.42912 -6.603733,4.3659 -0.592916,0.6378 -2.359948,2.52575 -1.473734,3.50839 0.712751,0.78937 2.744302,-0.12105 3.499385,-0.45673 m 0,-189.4061887 1.017344,1.3223887 v 0.101762 c -1.182155,0.673394 -2.254147,1.602119 -3.357261,2.398602 -0.297058,0.213616 -1.146347,0.875117 -1.146347,0.875117 0,0 1.399259,2.058536 1.799895,2.626144 1.398154,1.980525 2.655805,4.08922 3.837046,6.20504 3.729707,6.681099 6.47473,13.707021 8.561014,21.056433 5.700126,20.080926 3.264887,42.184081 -5.390025,61.033142 -2.401258,5.22953 -5.296745,10.53432 -8.882405,15.05484 v 0.10177 l 4.476355,3.15337 0.915617,-1.22067 v -0.10176 c -0.496776,-0.62559 -2.295458,-2.68648 -1.197631,-3.44939 0.932511,-0.64797 2.658039,0.0906 3.537536,0.52488 2.220369,1.09657 4.372272,2.48608 5.934624,4.45034 0.542244,0.68153 1.257752,1.51973 1.274634,2.44133 0.0137,0.74866 -0.682343,0.93075 -1.308615,0.91142 -0.974423,-0.0316 -1.20841,-0.21633 -2.437534,-0.62251 l -0.968535,1.31204 c 0.773491,0.57269 2.520156,1.91048 3.30433,2.46791 0.240499,0.1709 0.905246,0.67483 0.905246,0.67483 0,0 1.709252,-2.15183 2.103676,-2.70926 1.938163,-2.74039 3.647614,-5.70558 5.262764,-8.64637 C 74.083455,107.09947 78.328959,93.418892 80.03638,79.190034 82.418304,59.340014 78.573532,39.092268 70.267461,21.005097 68.326354,16.778552 65.967224,12.72189 63.477252,8.7984683 62.410763,7.1180263 61.092383,5.5494743 60.125382,3.8141033 l -4.374616,3.153371 h -0.101775 l -1.017356,-1.220663 c 0.842463,-0.915497 2.940859,-4.472708 0,-3.773879 -0.374898,0.08855 -0.754567,0.198358 -1.119083,0.323476 -2.50838,0.859546 -4.802721,2.429119 -6.603733,4.3659 -0.592916,0.637796 -2.359852,2.525763 -1.473734,3.5083957 0.712751,0.789358 2.744302,-0.121057 3.499385,-0.4567387 M 60.263594,286.09239 c -0.270929,-1.51698 2.094935,-1.93912 2.368599,-0.40689 0.270924,1.51699 -2.094923,1.93913 -2.368599,0.40689 m 0,-189.406182 c -0.270929,-1.516674 2.094935,-1.938824 2.368599,-0.406892 0.270924,1.516674 -2.094923,1.938819 -2.368599,0.406892 m 0.101775,131.221252 c -0.270928,-1.51698 2.094924,-1.93913 2.368599,-0.40688 0.270924,1.51697 -2.094935,1.93912 -2.368599,0.40688 m 0,-189.406193 c -0.270928,-1.516673 2.094924,-1.938823 2.368599,-0.406891 0.270924,1.516673 -2.094935,1.938823 -2.368599,0.406891 m 10.442198,160.618883 1.017355,1.32239 v 0.10177 c -1.182166,0.6734 -2.254147,1.60213 -3.35726,2.3986 -0.297167,0.21361 -1.146816,0.90397 -1.146816,0.90397 0,0 1.399728,2.02969 1.800364,2.5973 1.398142,1.98054 2.655792,4.08923 3.837034,6.20504 3.729719,6.6811 6.47473,13.70663 8.561014,21.05643 5.700229,20.08113 3.264893,42.18388 -5.390025,61.03315 -2.401259,5.22962 -5.296745,10.53402 -8.882393,15.05484 v 0.10176 l 4.476343,3.15339 0.915616,-1.22067 v -0.10176 c -0.496776,-0.62589 -2.295445,-2.68637 -1.197631,-3.44939 0.932511,-0.64817 2.65804,0.0902 3.537536,0.52469 2.22037,1.09655 4.372273,2.48638 5.934625,4.45053 0.542244,0.68175 1.257747,1.52011 1.274641,2.44124 0.01358,0.74902 -0.682338,0.93115 -1.308622,0.91119 -0.974423,-0.0311 -1.236551,-0.19172 -2.496017,-0.61304 l -0.915664,1.3234 c 0.773492,0.5723 2.525768,1.88973 3.309941,2.44742 0.240608,0.17108 0.929351,0.62772 0.929351,0.62772 0,0 1.685143,-2.1045 2.079567,-2.66216 1.938163,-2.74043 3.647614,-5.70582 5.262764,-8.64636 6.907207,-12.57558 11.15271,-26.25616 12.85973,-40.48533 2.38264,-19.85001 -1.46254,-40.09805 -9.768503,-58.18492 -1.941107,-4.22656 -4.300249,-8.28322 -6.79021,-12.20664 -1.066488,-1.68045 -2.38488,-3.249 -3.351877,-4.98438 l -4.374604,3.15338 h -0.101775 l -1.017355,-1.22066 c 0.842571,-0.9155 2.940859,-4.47271 0,-3.77388 -0.374887,0.0885 -0.754567,0.19836 -1.119083,0.32348 -2.508381,0.85954 -4.802709,2.42911 -6.603734,4.3659 -0.592915,0.63779 -2.359947,2.52575 -1.473734,3.50838 0.712763,0.78937 2.744302,-0.12104 3.499385,-0.45673 m 0,-189.4061867 1.017356,1.3223887 v 0.101762 c -1.182167,0.673395 -2.254147,1.60212 -3.35726,2.398602 -0.297167,0.213616 -1.146359,0.875117 -1.146359,0.875117 0,0 1.399271,2.058536 1.799907,2.626144 1.398142,1.980525 2.655792,4.08922 3.837034,6.20504 3.729719,6.681099 6.47473,13.707021 8.561014,21.056433 5.700229,20.080926 3.264893,42.184081 -5.390025,61.03314 -2.401259,5.22953 -5.296745,10.53432 -8.882393,15.05485 v 0.10176 l 4.476343,3.15337 0.915616,-1.22066 v -0.10177 c -0.496776,-0.62559 -2.295445,-2.68648 -1.197631,-3.44939 0.932403,-0.64797 2.65804,0.0906 3.537536,0.52489 2.22037,1.09656 4.372273,2.48607 5.934625,4.45033 0.542244,0.68153 1.257747,1.51973 1.274641,2.44133 0.01358,0.74866 -0.682338,0.93075 -1.308623,0.91142 -0.974422,-0.0316 -1.335406,-0.24805 -2.456087,-0.66594 l -0.965254,1.40055 c 0.773492,0.57269 2.535428,1.8654 3.319602,2.42284 0.240512,0.17089 0.905247,0.67482 0.905247,0.67482 0,0 1.709247,-2.15183 2.103671,-2.70926 1.938163,-2.74039 3.647614,-5.70558 5.262764,-8.64636 6.907213,-12.57588 11.152706,-26.256456 12.859736,-40.485314 2.38263,-19.85002 -1.46255,-40.097766 -9.768509,-58.184937 -1.941107,-4.226545 -4.300249,-8.283207 -6.79021,-12.2066287 -1.066488,-1.680442 -2.38488,-3.248994 -3.351877,-4.984365 l -4.374604,3.153371 h -0.101775 l -1.017356,-1.220663 c 0.842476,-0.915497 2.94086,-4.472708 0,-3.773879 -0.374886,0.08855 -0.754566,0.198358 -1.119082,0.323476 -2.508381,0.859546 -4.802709,2.429119 -6.603734,4.3659 -0.592916,0.637796 -2.359851,2.525763 -1.473734,3.5083957 0.712763,0.789358 2.744302,-0.121057 3.499385,-0.4567387 M 82.136626,286.09247 c -0.270924,-1.51698 2.094923,-1.93913 2.368587,-0.4069 0.270924,1.51699 -2.094924,1.93913 -2.368587,0.4069 m 0,-189.40619 c -0.270924,-1.516674 2.094923,-1.938824 2.368587,-0.406892 0.270924,1.516674 -2.094924,1.938827 -2.368587,0.406892 m 0.101775,131.22126 c -0.270924,-1.51698 2.094935,-1.93913 2.368599,-0.40689 0.270924,1.51697 -2.094923,1.93912 -2.368599,0.40689 m 0,-189.406201 c -0.270924,-1.516673 2.094935,-1.938823 2.368599,-0.406891 0.270924,1.516673 -2.094923,1.938823 -2.368599,0.406891 m 10.442197,160.618891 1.017356,1.32239 v 0.10176 c -1.182167,0.6734 -2.254147,1.60213 -3.35726,2.3986 -0.297071,0.21362 -1.098464,0.89929 -1.098464,0.89929 0,0 0.967634,1.44031 1.268057,1.88992 1.076354,1.61028 2.14956,3.22054 3.146969,4.88267 3.146461,5.24377 5.835317,10.87702 7.772574,16.6824 6.70332,20.08834 6.68908,41.90148 -0.99813,61.74519 -1.852593,4.78225 -4.077343,9.43267 -6.713403,13.83418 -0.843076,1.40773 -1.702121,2.83184 -2.651214,4.17059 -0.611637,0.86291 -1.512594,1.84433 -1.845472,2.84822 l 4.476343,3.05166 0.813877,-1.11894 v -0.10176 c -0.496764,-0.62589 -2.295445,-2.68637 -1.197619,-3.4494 0.767388,-0.53342 2.047016,-0.0639 2.825385,0.21271 2.45873,0.874 4.913803,2.65473 6.565983,4.66079 0.56769,0.68982 1.60029,1.85379 1.3246,2.84375 -0.21162,0.76074 -1.29815,0.6461 -1.88822,0.53293 -1.34584,-0.25795 -1.11825,-0.34056 -1.85091,-0.5767 l -0.892357,1.27982 4.269347,3.14246 c 4.27898,-5.39078 7.74306,-11.65611 10.61199,-17.90306 11.18986,-24.37124 13.22966,-52.26461 5.25564,-77.91897 -2.38874,-7.68611 -5.66562,-15.11385 -9.70451,-22.07367 -1.83937,-3.16762 -4.18539,-6.0728 -5.95964,-9.2567 l -4.374617,3.15339 h -0.10178 l -1.017336,-1.22067 c 0.652316,-0.709 1.355916,-1.57262 1.561726,-2.54305 0.212927,-1.00399 -0.57582,-1.44038 -1.459996,-1.25423 -0.37571,0.0783 -0.75396,0.1943 -1.11908,0.31331 -2.546536,0.82395 -4.891836,2.44946 -6.705466,4.39947 -0.592916,0.6378 -2.359851,2.52575 -1.473746,3.50839 0.712763,0.78937 2.744314,-0.12105 3.499385,-0.45673 m 0,-189.4061907 1.017356,1.3223887 V 11.1382 c -1.182167,0.673395 -2.254147,1.60212 -3.35726,2.398602 -0.297167,0.213616 -1.146347,0.875117 -1.146347,0.875117 0,0 1.399259,2.058536 1.799895,2.626144 1.398141,1.980525 2.655792,4.089221 3.837046,6.20504 3.729707,6.681099 6.47473,13.707022 8.56101,21.056433 5.70022,20.080926 3.26468,42.184081 -5.390033,61.033144 -2.401259,5.22953 -5.296734,10.53432 -8.882393,15.05484 v 0.10176 l 4.476343,3.15338 0.915616,-1.22067 v -0.10176 c -0.496764,-0.62559 -2.295445,-2.68648 -1.197619,-3.44939 0.932499,-0.64798 2.657933,0.0906 3.537533,0.52488 2.220366,1.09657 4.372273,2.48608 5.934203,4.45034 0.54226,0.68153 1.25847,1.51972 1.27475,2.44132 0.0142,0.74867 -0.68163,0.93076 -1.30832,0.91143 -0.97462,-0.0316 -1.45521,-0.28812 -2.42182,-0.66255 l -0.958117,1.37659 c 0.773487,0.57269 2.493827,1.88597 3.278207,2.4434 0.24009,0.1709 0.90525,0.67483 0.90525,0.67483 0,0 1.70934,-2.15183 2.10408,-2.70926 1.93805,-2.74039 3.6472,-5.70558 5.26274,-8.64637 6.9068,-12.57588 11.15222,-26.25645 12.85934,-40.485308 2.38263,-19.85002 -1.46296,-40.097766 -9.76861,-58.184937 -1.94111,-4.226545 -4.30035,-8.283207 -6.78981,-12.2066287 -1.0672,-1.680442 -2.38467,-3.248993 -3.35217,-4.984365 l -4.374617,3.153371 h -0.10177 l -1.017346,-1.220663 c 0.842466,-0.915497 2.940863,-4.472708 0,-3.773879 -0.37489,0.08855 -0.75457,0.198358 -1.11909,0.323476 -2.508381,0.859546 -4.802709,2.429119 -6.603722,4.3659 -0.592916,0.637796 -2.359959,2.525763 -1.473746,3.5083957 0.712763,0.789358 2.744314,-0.121057 3.499385,-0.4567387 M 89.664639,178.36904 c -0.258607,-1.55227 2.172451,-1.95916 2.471864,-0.40689 0.318832,1.654 -2.191687,2.08836 -2.471864,0.40689 m 0.305614,-9.15497 c -0.258511,-1.46072 2.113849,-1.97239 2.4744,-0.5086 0.414466,1.68247 -2.165637,2.25415 -2.4744,0.5086 m 0.305302,-9.15497 c -0.271633,-1.56347 2.33004,-1.92763 2.569121,-0.30517 0.232461,1.57771 -2.290663,1.90831 -2.569121,0.30517 m 0.314157,-9.15497 c -0.180672,-1.64179 2.438496,-1.91339 2.575935,-0.20344 0.124533,1.55125 -2.404911,1.75775 -2.575935,0.20344 m 0.42271,-8.84981 c -0.574387,-1.55431 1.822593,-2.42709 2.392511,-0.81377 0.531466,1.50345 -1.851072,2.27857 -2.392511,0.81377 m 12.997548,144.03786 c -0.27062,-1.51698 2.09473,-1.93913 2.36839,-0.40689 0.27062,1.51698 -2.09472,1.93912 -2.36839,0.40689 m 0,-189.406189 c -0.27062,-1.516673 2.09473,-1.938823 2.36839,-0.406891 0.27062,1.516673 -2.09472,1.938825 -2.36839,0.406891 m 0.10177,131.221249 c -0.27061,-1.51697 2.09473,-1.93912 2.3684,-0.40688 0.27061,1.51698 -2.09474,1.93913 -2.3684,0.40688 m 0,-189.406189 c -0.27061,-1.516673 2.09473,-1.938823 2.3684,-0.406891 0.27061,1.516673 -2.09474,1.938823 -2.3684,0.406891 z"
     id="path7530"
     inkscape:label="#1 3mm ply" />
</svg>
