<?xml version="1.0" encoding="UTF-8" standalone="no"?>
<svg
   id="svg363"
   version="1.1"
   viewBox="0 0 210 297"
   height="297mm"
   width="210mm"
   sodipodi:docname="carrete-12-1.2-portrait.svg"
   inkscape:version="1.2.2 (b0a8486, 2022-12-01)"
   inkscape:export-filename="carrete-15-ALT-portrait 3mm.svg"
   inkscape:export-xdpi="300.12"
   inkscape:export-ydpi="300.12"
   xmlns:inkscape="http://www.inkscape.org/namespaces/inkscape"
   xmlns:sodipodi="http://sodipodi.sourceforge.net/DTD/sodipodi-0.dtd"
   xmlns="http://www.w3.org/2000/svg"
   xmlns:svg="http://www.w3.org/2000/svg"
   xmlns:rdf="http://www.w3.org/1999/02/22-rdf-syntax-ns#"
   xmlns:cc="http://creativecommons.org/ns#"
   xmlns:dc="http://purl.org/dc/elements/1.1/">
  <sodipodi:namedview
     id="namedview862"
     pagecolor="#ffffff"
     bordercolor="#666666"
     borderopacity="1.0"
     inkscape:showpageshadow="2"
     inkscape:pageopacity="0.0"
     inkscape:pagecheckerboard="0"
     inkscape:deskcolor="#d1d1d1"
     inkscape:document-units="mm"
     showgrid="false"
     inkscape:zoom="2.1043021"
     inkscape:cx="100.03316"
     inkscape:cy="856.1033"
     inkscape:window-width="3440"
     inkscape:window-height="1384"
     inkscape:window-x="0"
     inkscape:window-y="0"
     inkscape:window-maximized="1"
     inkscape:current-layer="svg363" />
  <defs
     id="defs357" />
  <metadata
     id="metadata360">
    <rdf:RDF>
      <cc:Work
         rdf:about="">
        <dc:format>image/svg+xml</dc:format>
        <dc:type
           rdf:resource="http://purl.org/dc/dcmitype/StillImage" />
      </cc:Work>
    </rdf:RDF>
    <rdf:RDF>
      <cc:Work
         rdf:about="">
        <dc:title />
      </cc:Work>
    </rdf:RDF>
    <rdf:RDF>
      <cc:Work
         rdf:about="">
        <dc:title />
      </cc:Work>
    </rdf:RDF>
    <rdf:RDF>
      <cc:Work
         rdf:about="">
        <dc:title />
      </cc:Work>
    </rdf:RDF>
    <rdf:RDF>
      <cc:Work
         rdf:about="">
        <dc:title />
      </cc:Work>
    </rdf:RDF>
    <rdf:RDF>
      <cc:Work
         rdf:about="">
        <dc:title />
      </cc:Work>
    </rdf:RDF>
    <rdf:RDF>
      <cc:Work
         rdf:about="">
        <dc:title />
      </cc:Work>
    </rdf:RDF>
    <rdf:RDF>
      <cc:Work
         rdf:about="">
        <dc:title />
      </cc:Work>
    </rdf:RDF>
    <rdf:RDF>
      <cc:Work
         rdf:about="">
        <dc:title />
      </cc:Work>
    </rdf:RDF>
    <rdf:RDF>
      <cc:Work
         rdf:about="">
        <dc:title />
      </cc:Work>
    </rdf:RDF>
    <rdf:RDF>
      <cc:Work
         rdf:about="">
        <dc:title />
      </cc:Work>
    </rdf:RDF>
    <rdf:RDF>
      <cc:Work
         rdf:about="">
        <dc:title />
      </cc:Work>
    </rdf:RDF>
    <rdf:RDF>
      <cc:Work
         rdf:about="">
        <dc:title />
      </cc:Work>
    </rdf:RDF>
    <rdf:RDF>
      <cc:Work
         rdf:about="">
        <dc:title />
      </cc:Work>
    </rdf:RDF>
    <rdf:RDF>
      <cc:Work
         rdf:about="">
        <dc:title />
      </cc:Work>
    </rdf:RDF>
    <rdf:RDF>
      <cc:Work
         rdf:about="">
        <dc:title />
      </cc:Work>
    </rdf:RDF>
    <rdf:RDF>
      <cc:Work
         rdf:about="">
        <dc:title />
      </cc:Work>
    </rdf:RDF>
    <rdf:RDF>
      <cc:Work
         rdf:about="">
        <dc:title />
      </cc:Work>
    </rdf:RDF>
    <rdf:RDF>
      <cc:Work
         rdf:about="">
        <dc:title />
      </cc:Work>
    </rdf:RDF>
    <rdf:RDF>
      <cc:Work
         rdf:about="">
        <dc:title />
      </cc:Work>
    </rdf:RDF>
    <rdf:RDF>
      <cc:Work
         rdf:about="">
        <dc:title />
      </cc:Work>
    </rdf:RDF>
    <rdf:RDF>
      <cc:Work
         rdf:about="">
        <dc:title />
      </cc:Work>
    </rdf:RDF>
    <rdf:RDF>
      <cc:Work
         rdf:about="">
        <dc:title />
      </cc:Work>
    </rdf:RDF>
    <rdf:RDF>
      <cc:Work
         rdf:about="">
        <dc:title />
      </cc:Work>
    </rdf:RDF>
    <rdf:RDF>
      <cc:Work
         rdf:about="">
        <dc:title />
      </cc:Work>
    </rdf:RDF>
    <rdf:RDF>
      <cc:Work
         rdf:about="">
        <dc:title />
      </cc:Work>
    </rdf:RDF>
    <rdf:RDF>
      <cc:Work
         rdf:about="">
        <dc:title />
      </cc:Work>
    </rdf:RDF>
    <rdf:RDF>
      <cc:Work
         rdf:about="">
        <dc:title />
      </cc:Work>
    </rdf:RDF>
    <rdf:RDF>
      <cc:Work
         rdf:about="">
        <dc:title />
      </cc:Work>
    </rdf:RDF>
    <rdf:RDF>
      <cc:Work
         rdf:about="">
        <dc:title />
      </cc:Work>
    </rdf:RDF>
  </metadata>
  <path
     style="display:inline;fill:#3201f1;stroke:none;stroke-width:0.0846669"
     d="m 3.597673,211.6809 0.706159,0.91815 v 0.0707 c -0.820556,0.46756 -1.564622,1.11238 -2.330315,1.66538 -0.206233,0.14831 -0.8118566,0.59931 -0.8118566,0.59931 0,0 0.9873896,1.43756 1.2655176,1.83166 0.97045,1.3751 1.8434,2.83919 2.663281,4.30822 2.588792,4.63875 4.494287,9.51665 5.942326,14.61969 3.956382,13.94281 2.266201,29.28848 -3.74128,42.37593 -1.666726,3.63098 -3.676534,7.31387 -6.1653748,10.45273 v 0.0707 l 3.1070828,2.18942 0.63554,-0.84751 v -0.0707 c -0.344826,-0.43456 -1.593271,-1.86517 -0.831256,-2.39494 0.6472,-0.45003 1.844918,0.0627 2.455412,0.36429 1.541185,0.76135 3.034846,1.72632 4.119293,3.09005 0.376379,0.47334 0.873018,1.05544 0.884744,1.69499 0.0094,0.52004 -0.473619,0.64651 -0.90833,0.63264 -0.676284,-0.0216 -0.845444,-0.10434 -1.732515,-0.42564 l -0.635573,0.91885 c 0.536889,0.39735 1.753165,1.31206 2.297469,1.69926 0.167009,0.11879 0.645074,0.43584 0.645074,0.43584 0,0 1.169677,-1.46117 1.443452,-1.84837 1.345302,-1.90272 2.531854,-3.96159 3.652949,-6.00326 4.794376,-8.73135 7.741231,-18.22991 8.92638,-28.10935 1.653389,-13.782 -1.015388,-27.84057 -6.780722,-40.39839 -1.347346,-2.93454 -2.984855,-5.75112 -4.713168,-8.47519 -0.740263,-1.16675 -1.655374,-2.25581 -2.326578,-3.46071 L 8.32892,209.77408 H 8.25828 l -0.706158,-0.84752 c 0.584839,-0.63564 2.041285,-3.10545 0,-2.62024 -0.260213,0.0615 -0.523787,0.13772 -0.776769,0.22459 -1.74108,0.59679 -3.333617,1.68656 -4.583696,3.03129 -0.411567,0.44283 -1.63805937,1.75365 -1.0229449,2.43591 0.4946959,0.54806 1.9048029,-0.0841 2.4289399,-0.31711 m 0,-131.506628 0.706159,0.918148 v 0.07065 c -0.820548,0.467545 -1.564639,1.112368 -2.330315,1.665374 -0.206233,0.148316 -0.7956928,0.607602 -0.7956928,0.607602 0,0 0.9712258,1.429262 1.2493538,1.823358 0.970458,1.375098 1.8434,2.839187 2.663281,4.308221 2.588792,4.638754 4.494287,9.516924 5.942326,14.619695 3.956382,13.94309 2.266201,29.28813 -3.74128,42.37593 -1.666726,3.63092 -3.676534,7.31408 -6.1653748,10.45273 v 0.0707 l 3.1070828,2.18942 0.63554,-0.84752 v -0.0707 c -0.344826,-0.43435 -1.593262,-1.86525 -0.831256,-2.39495 0.6472,-0.44989 1.844918,0.0629 2.455412,0.36443 1.541185,0.76136 3.034846,1.72611 4.119293,3.08992 0.376379,0.47319 0.873017,1.05516 0.884744,1.69503 0.0094,0.51981 -0.473619,0.64624 -0.90833,0.63282 -0.490042,-0.0224 -0.958832,-0.11794 -1.682339,-0.4197 l -0.660219,0.92448 c 0.536889,0.39762 1.727635,1.30043 2.271939,1.68746 0.166942,0.11865 0.628343,0.46854 0.628343,0.46854 0,0 1.186408,-1.49404 1.460183,-1.88107 1.345302,-1.90268 2.531854,-3.96144 3.652949,-6.00326 4.794376,-8.73156 7.741231,-18.23012 8.92638,-28.10936 1.653389,-13.78207 -1.015388,-27.84028 -6.780723,-40.39839 -1.347345,-2.934532 -2.984854,-5.751113 -4.713167,-8.475184 -0.740263,-1.166748 -1.655374,-2.255809 -2.326578,-3.460695 L 8.328899,78.267468 H 8.258259 L 7.552101,77.41995 c 0.584772,-0.635639 2.041285,-3.105446 0,-2.620242 -0.260213,0.06148 -0.523779,0.137722 -0.776769,0.224592 -1.74108,0.596792 -3.333592,1.686562 -4.583696,3.031288 -0.411567,0.442829 -1.63806777,1.753663 -1.0229449,2.435915 0.4947119,0.54806 1.9048029,-0.08405 2.4289399,-0.317118 m 78.80699,124.797045 c -5.063137,-3.8442 -10.483587,-7.08525 -16.382818,-9.48232 -13.475856,-5.47638 -28.987837,-6.49058 -43.004895,-2.53408 -5.436621,1.53472 -10.692542,3.62243 -15.606044,6.42631 -1.16559,0.6653 -2.361607,1.32778 -3.460166,2.09973 -0.267185,0.18716 -1.008691,0.69727 -1.008691,0.69727 0,0 1.493912,2.27964 2.083188,3.14622 0.157534,0.23166 0.684465,0.93835 0.684465,0.93835 0,0 0.823725,-0.51247 1.065664,-0.67632 0.684757,-0.46402 1.397413,-0.91532 2.118468,-1.32071 2.716367,-1.52696 5.444253,-2.9522 8.332644,-4.12884 11.604048,-4.72844 24.707123,-5.92485 36.931948,-3.18455 3.430859,0.76912 6.742591,1.88008 10.027416,3.12311 3.958565,1.4987 7.680855,3.64221 11.227878,5.92627 0.970258,0.62504 1.897438,1.32072 2.824626,2.0065 0.266218,0.19705 1.101362,0.85056 1.101362,0.85056 0,0 0.713456,-0.82443 0.893526,-1.06244 0.711805,-0.94075 1.521769,-1.84123 2.171429,-2.82506 m 0.211847,-6.35638 c -4.056865,-3.08073 -8.317104,-5.78079 -12.922652,-7.97303 -15.793885,-7.52032 -32.2676,-8.77545 -48.7849,-3.42406 -3.367296,1.09096 -11.315621,4.18066 -16.266972,7.58903 -0.838821,0.57743 -1.487072,1.00948 -1.487072,1.00948 l 2.759162,4.04921 c 0,0 0.66293,-0.34733 0.86129,-0.48505 0.662588,-0.45836 1.349889,-0.87718 2.047849,-1.27975 2.781198,-1.60605 5.591912,-3.02352 8.544491,-4.28844 11.565982,-4.95657 25.30489,-6.02656 37.496879,-3.05389 3.325502,0.81079 6.672397,1.69645 9.815569,3.08638 3.834919,1.69574 7.502194,3.54333 11.016031,5.84576 0.937773,0.61445 1.862133,1.27339 2.754008,1.95282 0.2641,0.20199 1.101361,0.85903 1.101361,0.85903 0,0 0.75018,-0.86256 0.947197,-1.13306 0.677201,-0.93015 1.508349,-1.77909 2.117759,-2.75443 m 0.211847,-6.35639 C 70.87733,183.18455 56.733599,178.14394 41.730041,177.85437 c -5.867805,-0.113 -11.746694,0.81857 -17.442052,2.18589 -5.682364,1.36451 -11.133892,3.71355 -16.241584,6.51954 -1.230897,0.6766 -2.409565,1.44078 -3.601395,2.18095 -0.302699,0.18857 -1.053204,0.74311 -1.053204,0.74311 0,0 1.454628,2.14904 2.028416,3.0573 0.159753,0.25284 0.702381,1.02275 0.702381,1.02275 0,0 0.877312,-0.5545 1.147033,-0.73812 0.768228,-0.52264 1.595348,-1.00149 2.400924,-1.4655 2.875186,-1.6562 5.861244,-3.1337 8.968185,-4.3054 11.380124,-4.29268 23.748733,-5.43189 35.660876,-2.86037 3.844026,0.82986 7.48779,2.13292 11.15726,3.52144 3.705341,1.40264 7.217619,3.50449 10.521719,5.66283 0.91165,0.59538 1.8233,1.22608 2.683398,1.8935 0.269746,0.20835 1.140269,0.85369 1.140269,0.85369 0,0 0.671721,-0.78871 0.863092,-1.04227 0.709687,-0.93932 1.540126,-1.82498 2.162956,-2.82505 m 0.213548,-6.33658 c -0.289438,-0.3197 -0.624531,-0.5029 -0.978315,-0.77693 -0.80149,-0.6201 -1.635457,-1.19853 -2.471543,-1.77202 -3.227844,-2.21203 -6.656934,-4.22276 -10.251264,-5.78008 -10.5278,-4.56318 -21.805103,-6.78227 -33.262705,-5.8733 -4.816753,0.3828 -9.475405,1.39911 -14.120362,2.68805 -4.910958,1.36309 -9.821218,3.47765 -14.193734,6.09507 -1.018408,0.6095 -2.04825,1.195 -3.036465,1.85323 -0.278195,0.18576 -1.130344,0.72307 -1.130344,0.72307 0,0 0.916395,1.38585 1.162546,1.7637 0.35396,0.54311 0.720238,1.07917 1.071595,1.62441 0.127591,0.19776 0.436321,0.73954 0.436321,0.73954 0,0 0.950633,-0.56368 1.21389,-0.73319 0.967714,-0.62292 1.967414,-1.19359 2.965854,-1.76283 13.59541,-7.75763 30.579414,-10.20327 45.637168,-6.54064 6.234016,1.68656 12.14771,4.21137 17.775628,7.36344 1.579676,0.88495 3.042119,1.98955 4.5194,3.02846 0.374969,0.26344 1.643789,1.21773 1.643789,1.21773 0,0 0.661812,-0.79185 0.870123,-1.05247 0.694157,-0.8694 1.424828,-1.97817 2.148418,-2.80524 M 3.79605,176.70116 c 0,0 1.542253,2.32491 2.112487,3.19785 0.160011,0.24507 0.637759,0.96766 0.637759,0.96766 0,0 0.938148,-0.59687 1.217644,-0.76496 1.060718,-0.63705 2.120661,-1.27552 3.177701,-1.91892 3.205525,-1.95283 6.785245,-3.38089 10.309883,-4.63028 14.461786,-5.12537 30.903007,-4.46713 44.982125,1.5898 3.275652,1.40971 6.478983,3.0878 9.462494,5.04486 1.437022,0.94215 4.556023,3.24175 4.556023,3.24175 0,0 0.331282,-0.3835 0.584789,-0.70485 0.574814,-0.72745 1.158802,-1.44925 1.715959,-2.18942 0.165949,-0.21965 0.776618,-0.95442 0.776618,-0.95442 0,0 -0.651629,-0.48707 -0.854292,-0.64598 -0.776777,-0.6088 -1.584614,-1.18723 -2.400933,-1.74306 -3.296336,-2.24522 -6.771331,-4.36401 -10.451109,-5.92486 -3.637901,-1.54249 -7.265285,-2.92959 -11.086642,-3.96073 -8.92447,-2.40767 -18.444157,-2.71065 -27.540081,-1.27906 -3.264984,0.51417 -6.621838,1.18512 -9.744951,2.29325 -4.66042,1.65337 -9.215053,3.42468 -13.487584,5.95735 -0.999867,0.59256 -1.999917,1.17946 -2.965855,1.8257 -0.258044,0.17303 -1.002035,0.59832 -1.002035,0.59832 m 7.665258,95.36549 c -0.188052,-1.05325 1.454186,-1.34635 1.644064,-0.2825 0.188051,1.05325 -1.454186,1.34635 -1.644064,0.2825 m 0,-131.50662 c -0.188052,-1.05304 1.454186,-1.34614 1.644064,-0.28251 0.188051,1.05304 -1.454186,1.34615 -1.644064,0.28251 m 0.07064,91.10824 c -0.188052,-1.05325 1.454186,-1.34635 1.644072,-0.2825 0.188052,1.05325 -1.454186,1.34635 -1.644072,0.2825 m 0,-131.50663 c -0.188052,-1.05304 1.454186,-1.346143 1.644072,-0.282507 0.188052,1.053037 -1.454186,1.346147 -1.644072,0.282507 m 7.248056,111.51931 0.706158,0.91815 v 0.0707 c -0.820556,0.46756 -1.56463,1.11238 -2.330314,1.66538 -0.206267,0.14831 -0.811857,0.59931 -0.811857,0.59931 0,0 0.987406,1.43756 1.265492,1.83166 0.970467,1.3751 1.843418,2.83919 2.66334,4.30823 2.588834,4.63874 4.494187,9.51664 5.942301,14.61969 3.956522,13.94252 2.266193,29.28869 -3.741289,42.37592 -1.666742,3.63099 -3.676525,7.31388 -6.165374,10.45273 v 0.0707 l 3.107083,2.18941 0.63554,-0.84751 v -0.0707 c -0.34481,-0.43457 -1.593296,-1.86518 -0.831282,-2.39495 0.647259,-0.45003 1.844969,0.0626 2.455446,0.36429 1.541185,0.76136 3.034847,1.72633 4.119285,3.09006 0.376387,0.47334 0.873026,1.05542 0.884744,1.69498 0.0095,0.52004 -0.473619,0.64651 -0.908331,0.63264 -0.67635,-0.0216 -0.897112,-0.13376 -1.732506,-0.42564 l -0.635582,0.91885 c 0.53689,0.39735 1.753174,1.31207 2.297478,1.69926 0.167001,0.11879 0.645074,0.43585 0.645074,0.43585 0,0 1.169677,-1.46118 1.443452,-1.84837 1.345293,-1.90272 2.531852,-3.9616 3.652938,-6.00326 4.794376,-8.73135 7.74124,-18.22991 8.92638,-28.10936 1.653392,-13.782 -1.01538,-27.84057 -6.780722,-40.39839 -1.347346,-2.93454 -2.984846,-5.75111 -4.713165,-8.47518 -0.740263,-1.16675 -1.655374,-2.25581 -2.32657,-3.46071 l -3.036473,2.18943 h -0.07064 l -0.70615,-0.84752 c 0.584764,-0.63564 2.041285,-3.10545 0,-2.62024 -0.260221,0.0615 -0.523762,0.13772 -0.776777,0.22459 -1.741097,0.59679 -3.333617,1.68656 -4.583722,3.03129 -0.41155,0.44283 -1.638076,1.75365 -1.022944,2.43591 0.494737,0.54806 1.904861,-0.084 2.428965,-0.31711 m 0,-131.506628 0.706158,0.918148 v 0.07065 c -0.820556,0.467545 -1.56463,1.112368 -2.330314,1.665374 -0.2062,0.148316 -0.795693,0.607602 -0.795693,0.607602 0,0 0.971242,1.429262 1.249328,1.823358 0.970467,1.375098 1.843418,2.839187 2.66334,4.308221 2.588834,4.638754 4.494187,9.516924 5.942301,14.619695 3.956522,13.94239 2.266193,29.28884 -3.741289,42.37593 -1.666742,3.63092 -3.676525,7.31408 -6.165374,10.45273 v 0.0707 l 3.107083,2.18942 0.63554,-0.84752 v -0.0707 c -0.34481,-0.43435 -1.593296,-1.86525 -0.831282,-2.39495 0.647259,-0.44989 1.844969,0.0629 2.455446,0.36443 1.541185,0.76136 3.034847,1.72611 4.119285,3.08992 0.376387,0.47319 0.873026,1.05516 0.884744,1.69503 0.0095,0.51981 -0.473619,0.64624 -0.908331,0.63282 -0.67635,-0.0219 -0.84727,-0.15934 -1.693089,-0.46598 -0.174256,0.26367 -0.639018,0.94773 -0.639018,0.94773 0,0 1.717193,1.32346 2.261497,1.71049 0.166934,0.11865 0.628343,0.46854 0.628343,0.46854 0,0 1.186408,-1.49404 1.460183,-1.88107 1.345293,-1.90268 2.531852,-3.96144 3.652938,-6.00326 4.794376,-8.73156 7.741239,-18.23012 8.92638,-28.10936 1.653392,-13.78207 -1.01538,-27.84028 -6.780722,-40.39839 -1.347346,-2.934532 -2.984846,-5.751113 -4.713165,-8.475184 -0.740263,-1.166748 -1.655374,-2.255809 -2.32657,-3.460695 l -3.036473,2.189417 h -0.07064 l -0.70615,-0.847518 c 0.584764,-0.635639 2.041285,-3.105446 0,-2.620242 -0.260221,0.06148 -0.523762,0.137722 -0.776777,0.224592 -1.741097,0.596792 -3.333617,1.686562 -4.583722,3.031289 -0.41155,0.442828 -1.638001,1.753662 -1.022944,2.435914 0.494737,0.54806 1.904861,-0.08405 2.428964,-0.317118 M 21.845312,195.7194 c -0.0734,-1.10601 1.743849,-1.22112 1.786361,-0.0707 0.04095,1.10883 -1.711505,1.19853 -1.786361,0.0707 m 0.240797,-6.35639 c -0.04779,-1.12296 1.698727,-1.21053 1.762782,-0.0707 0.06197,1.10247 -1.71455,1.20277 -1.762782,0.0707 m 0.249203,-6.21513 c -0.213473,-1.10743 1.476781,-1.46762 1.706426,-0.35313 0.228085,1.10672 -1.492527,1.46267 -1.706426,0.35313 m 0.211847,-6.35638 c -0.212973,-1.10461 1.502068,-1.46409 1.716242,-0.35314 0.214174,1.11096 -1.501284,1.46832 -1.716242,0.35314 m 0.211847,-6.35639 c -0.209587,-1.08695 1.501785,-1.46551 1.716242,-0.35314 0.214174,1.11096 -1.501285,1.46832 -1.716242,0.35314 m 3.884635,101.63158 c -0.188051,-1.05325 1.454111,-1.34635 1.644073,-0.2825 0.188051,1.05325 -1.45412,1.34636 -1.644073,0.2825 m 0,-131.50661 c -0.188051,-1.05304 1.454111,-1.34614 1.644073,-0.28251 0.188051,1.05304 -1.45412,1.34615 -1.644073,0.28251 m 0.07064,91.10824 c -0.188052,-1.05325 1.454111,-1.34636 1.644064,-0.28251 0.188051,1.05326 -1.454111,1.34635 -1.644064,0.28251 m 0,-131.50663 c -0.188052,-1.05304 1.454111,-1.346143 1.644064,-0.282507 0.188051,1.053037 -1.454111,1.346147 -1.644064,0.282507 m 7.248053,111.51931 0.70615,0.91815 v 0.0707 c -0.820547,0.46756 -1.56463,1.11238 -2.330314,1.66538 -0.206267,0.14831 -0.811857,0.5993 -0.811857,0.5993 0,0 0.987406,1.43756 1.265492,1.83166 0.970475,1.37511 1.843426,2.83919 2.663339,4.30823 2.588835,4.63875 4.494188,9.51664 5.942302,14.61969 3.956525,13.94253 2.266196,29.28869 -3.74128,42.37592 -1.666742,3.63099 -3.676534,7.31388 -6.165383,10.45274 v 0.0707 l 3.107091,2.18942 0.63554,-0.84751 v -0.0707 c -0.344818,-0.43456 -1.593304,-1.86517 -0.83129,-2.39495 0.647267,-0.45002 1.844977,0.0627 2.455446,0.36429 1.541185,0.76136 3.034847,1.72633 4.119293,3.09006 0.376379,0.47334 0.873021,1.05542 0.884739,1.69498 0.0095,0.52005 -0.473622,0.64651 -0.908325,0.63264 -0.676359,-0.0216 -0.667301,-0.0666 -1.732515,-0.42564 l -0.635573,0.91885 c 0.536889,0.39736 1.753165,1.31207 2.297469,1.69927 0.167009,0.11879 0.645074,0.43584 0.645074,0.43584 0,0 1.169681,-1.46118 1.443455,-1.84837 1.345302,-1.90272 2.531852,-3.9616 3.652947,-6.00326 4.794376,-8.73135 7.741231,-18.22998 8.926372,-28.10936 1.653322,-13.78206 -1.01538,-27.84049 -6.780723,-40.39838 -1.347345,-2.93454 -2.984846,-5.75112 -4.713165,-8.47519 -0.740262,-1.16675 -1.655365,-2.25581 -2.326573,-3.46071 l -3.036473,2.18943 h -0.07064 l -0.706159,-0.84752 c 0.584764,-0.63564 2.041286,-3.10545 0,-2.62024 -0.260221,0.0615 -0.523753,0.13772 -0.776768,0.22459 -1.741097,0.59679 -3.333626,1.68656 -4.58373,3.03129 -0.41155,0.44283 -1.638068,1.75365 -1.022936,2.43591 0.494729,0.54806 1.904852,-0.0841 2.428964,-0.31711 m 0,-131.506628 0.706151,0.918148 v 0.07065 c -0.820548,0.467545 -1.56463,1.112368 -2.330315,1.665374 -0.206192,0.148316 -0.795693,0.607602 -0.795693,0.607602 0,0 0.971243,1.429262 1.249329,1.823358 0.970475,1.375099 1.843425,2.839187 2.663339,4.308221 2.588834,4.638754 4.494187,9.516924 5.942302,14.619695 3.956525,13.94239 2.266196,29.28884 -3.741281,42.37593 -1.666742,3.63092 -3.676534,7.31408 -6.165383,10.45273 v 0.0707 l 3.107092,2.18942 0.63554,-0.84752 v -0.0707 c -0.344818,-0.43435 -1.593304,-1.86525 -0.83129,-2.39495 0.647267,-0.44989 1.844977,0.0629 2.455446,0.36443 1.541185,0.76136 3.034846,1.72611 4.119293,3.08992 0.376378,0.47319 0.873021,1.05516 0.884739,1.69503 0.0095,0.51981 -0.473623,0.64624 -0.908326,0.63282 -0.676358,-0.0219 -0.838771,-0.15021 -1.691921,-0.43222 l -0.672272,0.91096 c 0.53689,0.39763 1.749271,1.32647 2.293575,1.7135 0.166934,0.11865 0.628342,0.46854 0.628342,0.46854 0,0 1.186412,-1.49404 1.460187,-1.88107 1.345302,-1.90268 2.531852,-3.96144 3.652947,-6.00326 4.794375,-8.73156 7.74123,-18.23012 8.926371,-28.10936 1.653322,-13.78207 -1.01538,-27.84028 -6.780722,-40.39839 -1.347346,-2.934532 -2.984846,-5.751113 -4.713165,-8.475184 -0.740263,-1.166748 -1.655366,-2.255809 -2.326573,-3.460695 l -3.036473,2.189417 h -0.07064 L 37.916743,77.42005 c 0.584764,-0.635639 2.041285,-3.105446 0,-2.620242 -0.260221,0.06148 -0.523754,0.137722 -0.776769,0.224592 -1.741096,0.596792 -3.333625,1.686562 -4.58373,3.031289 -0.411549,0.442828 -1.638,1.753662 -1.022936,2.435914 0.494729,0.54806 1.904853,-0.08405 2.428965,-0.317118 m 7.86368,191.892325 c -0.188055,-1.05326 1.454119,-1.34635 1.644072,-0.28251 0.188052,1.05326 -1.454111,1.34636 -1.644072,0.28251 m 0,-131.50662 c -0.188055,-1.05304 1.454119,-1.34614 1.644072,-0.28251 0.188052,1.05304 -1.454111,1.34615 -1.644072,0.28251 m 0.07064,91.10824 c -0.188055,-1.05325 1.454111,-1.34636 1.644073,-0.2825 0.188051,1.05325 -1.45412,1.34635 -1.644073,0.2825 m 0,-131.50663 c -0.188055,-1.053044 1.454111,-1.346147 1.644073,-0.282511 0.188051,1.053041 -1.45412,1.346141 -1.644073,0.282511 m 7.248053,111.51931 0.706159,0.91815 v 0.0707 c -0.820556,0.46756 -1.56463,1.11238 -2.330314,1.66538 -0.206267,0.14831 -0.796019,0.62764 -0.796019,0.62764 0,0 0.971568,1.40923 1.249654,1.80333 0.970467,1.3751 1.843417,2.83919 2.663331,4.30822 2.588842,4.63875 4.494187,9.51665 5.942302,14.61969 3.956596,13.94253 2.266201,29.28869 -3.741281,42.37592 -1.666742,3.63099 -3.676534,7.31388 -6.165374,10.45274 v 0.0707 l 3.107083,2.18942 0.63554,-0.84751 v -0.0707 c -0.344818,-0.43456 -1.593296,-1.86517 -0.83129,-2.39495 0.647267,-0.45002 1.844977,0.0627 2.455446,0.3643 1.541185,0.76135 3.034846,1.72632 4.119293,3.09005 0.376378,0.47334 0.873017,1.05543 0.884744,1.69498 0.0094,0.52005 -0.47362,0.64651 -0.908331,0.63264 -0.676358,-0.0216 -0.858304,-0.13311 -1.732514,-0.42563 l -0.635574,0.91885 c 0.53689,0.39735 1.753166,1.31206 2.29747,1.69926 0.167009,0.11879 0.645073,0.43584 0.645073,0.43584 0,0 1.169678,-1.46118 1.443452,-1.84837 1.345302,-1.90271 2.531853,-3.9616 3.652947,-6.00326 4.794376,-8.73135 7.741231,-18.22991 8.926097,-28.10936 1.653814,-13.78206 -1.015172,-27.84048 -6.780439,-40.39838 -1.347346,-2.93454 -2.984854,-5.75112 -4.713165,-8.47519 -0.740263,-1.16675 -1.655374,-2.25581 -2.326578,-3.46071 l -3.036465,2.18943 h -0.07064 l -0.706159,-0.84752 c 0.584839,-0.63564 2.041286,-3.10544 0,-2.62024 -0.260213,0.0615 -0.523753,0.13772 -0.776768,0.22459 -1.741097,0.59679 -3.333618,1.68656 -4.58373,3.03129 -0.41155,0.44283 -1.638068,1.75365 -1.022936,2.43591 0.494737,0.54806 1.904852,-0.084 2.428964,-0.31711 m 0,-131.506632 0.706159,0.918148 v 0.07065 c -0.820556,0.467545 -1.56463,1.112368 -2.330314,1.665374 -0.206267,0.148316 -0.795702,0.607602 -0.795702,0.607602 0,0 0.971251,1.429262 1.249337,1.823358 0.970467,1.375099 1.843417,2.839187 2.663331,4.308221 2.588842,4.638754 4.494187,9.516924 5.942301,14.619699 3.956597,13.94238 2.266202,29.28883 -3.74128,42.37592 -1.666742,3.63092 -3.676534,7.31408 -6.165374,10.45273 v 0.0707 l 3.107083,2.18942 0.63554,-0.84752 v -0.0707 c -0.344818,-0.43435 -1.593296,-1.86525 -0.83129,-2.39495 0.647192,-0.44989 1.844977,0.0629 2.455446,0.36443 1.541185,0.76136 3.034846,1.72611 4.119293,3.08992 0.376378,0.47319 0.873017,1.05516 0.884744,1.69503 0.0094,0.51981 -0.47362,0.64624 -0.908331,0.63282 -0.676358,-0.0219 -0.926921,-0.17223 -1.704799,-0.46238 l -0.669995,0.97242 c 0.53689,0.39763 1.759872,1.29517 2.304176,1.6822 0.166942,0.11865 0.628342,0.46854 0.628342,0.46854 0,0 1.186409,-1.49404 1.460183,-1.88107 1.345302,-1.90268 2.531853,-3.96144 3.652947,-6.00326 4.794376,-8.73156 7.741231,-18.23012 8.926097,-28.10936 1.653812,-13.78218 -1.015174,-27.84039 -6.780441,-40.398495 -1.347346,-2.934533 -2.984854,-5.751114 -4.713165,-8.475185 -0.740263,-1.166748 -1.655374,-2.255809 -2.326578,-3.460695 l -3.036465,2.189417 h -0.07064 L 53.09907,77.420044 c 0.584772,-0.635639 2.041286,-3.105446 0,-2.620242 -0.260213,0.06148 -0.523753,0.137722 -0.776768,0.224592 -1.741097,0.596792 -3.333618,1.686562 -4.58373,3.031289 -0.41155,0.442828 -1.638001,1.753662 -1.022936,2.435914 0.494737,0.54806 1.904852,-0.08405 2.428964,-0.317118 M 57.008282,272.0668 c -0.188051,-1.05325 1.454111,-1.34635 1.644064,-0.28251 0.188052,1.05326 -1.454111,1.34636 -1.644064,0.28251 m 0,-131.50662 c -0.188051,-1.05304 1.454111,-1.34614 1.644064,-0.28251 0.188052,1.05304 -1.454111,1.34615 -1.644064,0.28251 m 0.07064,91.10824 c -0.188052,-1.05325 1.454119,-1.34636 1.644072,-0.2825 0.188052,1.05325 -1.454111,1.34635 -1.644072,0.2825 m 0,-131.50663 c -0.188052,-1.05304 1.454119,-1.346143 1.644072,-0.282507 0.188052,1.053047 -1.454111,1.346147 -1.644072,0.282507 m 7.248053,111.51931 0.706158,0.91815 v 0.0707 c -0.820556,0.46756 -1.56463,1.11238 -2.330314,1.66538 -0.2062,0.14831 -0.762457,0.62438 -0.762457,0.62438 0,0 0.671646,1.00003 0.880174,1.3122 0.74711,1.11803 1.492035,2.23605 2.184348,3.39008 2.183999,3.6408 4.050368,7.55202 5.395036,11.58276 4.652856,13.94753 4.642972,29.09262 -0.692813,42.8703 -1.28591,3.32037 -2.830131,6.5492 -4.659853,9.60521 -0.58519,0.9774 -1.181463,1.96618 -1.84024,2.89569 -0.424544,0.59913 -1.049909,1.28054 -1.280964,1.97754 l 3.107083,2.1188 0.564922,-0.77689 v -0.0707 c -0.34481,-0.43456 -1.593296,-1.86518 -0.831281,-2.39495 0.532652,-0.37037 1.420857,-0.0444 1.961133,0.14768 1.706634,0.60683 3.410733,1.84321 4.557533,3.23604 0.394035,0.47894 1.110778,1.2871 0.919415,1.97444 -0.146883,0.52819 -0.901058,0.44859 -1.310631,0.37002 -0.934169,-0.1791 -0.776193,-0.23645 -1.284742,-0.40041 l -0.619393,0.88859 2.963402,2.18185 c 2.970092,-3.74288 5.374552,-8.09296 7.365912,-12.43028 7.767015,-16.9212 9.18286,-36.28785 3.648001,-54.09992 -1.658051,-5.33655 -3.932576,-10.4937 -6.736018,-15.32597 -1.276727,-2.19931 -2.905128,-4.21641 -4.136658,-6.42702 l -3.036473,2.18942 h -0.07064 l -0.706151,-0.84751 c 0.452785,-0.49227 0.941159,-1.09189 1.084013,-1.76567 0.147801,-0.69708 -0.399681,-1.00007 -1.013403,-0.87083 -0.26078,0.0544 -0.523328,0.13491 -0.776768,0.21754 -1.767578,0.57207 -3.395478,1.70068 -4.65434,3.0546 -0.41155,0.44282 -1.638001,1.75365 -1.022945,2.4359 0.494737,0.54807 1.904861,-0.084 2.428965,-0.31711 m 0,-131.506623 0.706159,0.918148 v 0.07065 c -0.820556,0.467545 -1.56463,1.112368 -2.330315,1.665374 -0.206267,0.148316 -0.795693,0.607602 -0.795693,0.607602 0,0 0.971243,1.429262 1.249329,1.823358 0.970467,1.375099 1.843417,2.839187 2.663339,4.308221 2.588834,4.638754 4.494187,9.516924 5.942301,14.61969 3.956589,13.94239 2.266052,29.28884 -3.741288,42.37594 -1.666742,3.63091 -3.676526,7.31408 -6.165375,10.45273 v 0.0707 l 3.107083,2.18942 0.635541,-0.84752 v -0.0707 c -0.34481,-0.43435 -1.593297,-1.86525 -0.831282,-2.39494 0.647258,-0.4499 1.844902,0.0629 2.455446,0.36443 1.541185,0.76136 3.034846,1.72611 4.119001,3.08991 0.376387,0.47319 0.873518,1.05516 0.884819,1.69504 0.0098,0.51981 -0.473127,0.64623 -0.908122,0.63281 -0.676492,-0.0219 -1.010075,-0.20004 -1.681012,-0.46001 l -0.665041,0.95578 c 0.53689,0.39762 1.730997,1.30944 2.275443,1.69648 0.16665,0.11865 0.628342,0.46853 0.628342,0.46853 0,0 1.186476,-1.49403 1.460467,-1.88106 1.345227,-1.90268 2.531569,-3.96144 3.652938,-6.00326 4.794093,-8.73156 7.740885,-18.23012 8.925817,-28.10936 1.653815,-13.78208 -1.015455,-27.84029 -6.780509,-40.398394 -1.347346,-2.934533 -2.984921,-5.751114 -4.71289,-8.475185 -0.740755,-1.166748 -1.655224,-2.255809 -2.326778,-3.460695 l -3.036473,2.189417 h -0.07064 l -0.706151,-0.847518 c 0.584764,-0.635639 2.041286,-3.105446 0,-2.620242 -0.260221,0.06148 -0.523762,0.137722 -0.776777,0.224592 -1.741096,0.596792 -3.333617,1.686562 -4.583721,3.031289 -0.41155,0.442828 -1.638076,1.753662 -1.022945,2.435915 0.494737,0.548059 1.904861,-0.08405 2.428965,-0.317119 m -2.093398,117.09884 c -0.179503,-1.07776 1.507923,-1.36027 1.71575,-0.28251 0.221305,1.14839 -1.521277,1.44996 -1.71575,0.28251 m 0.21213,-6.35639 c -0.179436,-1.0142 1.467247,-1.36945 1.71751,-0.35313 0.287686,1.16816 -1.503194,1.56508 -1.71751,0.35313 m 0.211914,-6.35639 c -0.188544,-1.08553 1.617308,-1.33837 1.783257,-0.21188 0.161354,1.09542 -1.589976,1.32496 -1.783257,0.21188 m 0.21806,-6.35639 c -0.125407,-1.13991 1.692589,-1.32848 1.787987,-0.14125 0.08644,1.07705 -1.669278,1.22043 -1.787987,0.14125 m 0.293408,-6.14451 c -0.398689,-1.07917 1.265083,-1.68515 1.66067,-0.56501 0.368897,1.04386 -1.284851,1.58204 -1.66067,0.56501 M 72.19083,272.0666 c -0.187834,-1.05325 1.453978,-1.34635 1.643931,-0.28251 0.187843,1.05326 -1.453969,1.34636 -1.643931,0.28251 m 0,-131.50662 c -0.187834,-1.05304 1.453978,-1.34614 1.643931,-0.28251 0.187843,1.05304 -1.453969,1.34615 -1.643931,0.28251 m 0.07064,91.10824 c -0.187835,-1.05325 1.453977,-1.34636 1.64393,-0.2825 0.187835,1.05325 -1.453977,1.34635 -1.64393,0.2825 m 0,-131.50663 c -0.187835,-1.05304 1.453977,-1.346143 1.64393,-0.282507 0.187835,1.053037 -1.453977,1.346147 -1.64393,0.282507 z"
     id="path7530"
     inkscape:label="#1 3mm ply 268x104" />
</svg>
